%TF.GenerationSoftware,KiCad,Pcbnew,8.0.1*%
%TF.CreationDate,2024-04-22T23:19:19-07:00*%
%TF.ProjectId,ThrottleControlBoard,5468726f-7474-46c6-9543-6f6e74726f6c,rev?*%
%TF.SameCoordinates,Original*%
%TF.FileFunction,Paste,Top*%
%TF.FilePolarity,Positive*%
%FSLAX46Y46*%
G04 Gerber Fmt 4.6, Leading zero omitted, Abs format (unit mm)*
G04 Created by KiCad (PCBNEW 8.0.1) date 2024-04-22 23:19:19*
%MOMM*%
%LPD*%
G01*
G04 APERTURE LIST*
G04 Aperture macros list*
%AMRoundRect*
0 Rectangle with rounded corners*
0 $1 Rounding radius*
0 $2 $3 $4 $5 $6 $7 $8 $9 X,Y pos of 4 corners*
0 Add a 4 corners polygon primitive as box body*
4,1,4,$2,$3,$4,$5,$6,$7,$8,$9,$2,$3,0*
0 Add four circle primitives for the rounded corners*
1,1,$1+$1,$2,$3*
1,1,$1+$1,$4,$5*
1,1,$1+$1,$6,$7*
1,1,$1+$1,$8,$9*
0 Add four rect primitives between the rounded corners*
20,1,$1+$1,$2,$3,$4,$5,0*
20,1,$1+$1,$4,$5,$6,$7,0*
20,1,$1+$1,$6,$7,$8,$9,0*
20,1,$1+$1,$8,$9,$2,$3,0*%
G04 Aperture macros list end*
%ADD10RoundRect,0.250000X-0.337500X-0.475000X0.337500X-0.475000X0.337500X0.475000X-0.337500X0.475000X0*%
%ADD11RoundRect,0.237500X-0.250000X-0.237500X0.250000X-0.237500X0.250000X0.237500X-0.250000X0.237500X0*%
%ADD12RoundRect,0.237500X0.237500X-0.250000X0.237500X0.250000X-0.237500X0.250000X-0.237500X-0.250000X0*%
%ADD13RoundRect,0.100000X-0.637500X-0.100000X0.637500X-0.100000X0.637500X0.100000X-0.637500X0.100000X0*%
G04 APERTURE END LIST*
D10*
%TO.C,C2*%
X30902500Y-14420000D03*
X32977500Y-14420000D03*
%TD*%
%TO.C,C1*%
X30902500Y-12220000D03*
X32977500Y-12220000D03*
%TD*%
D11*
%TO.C,R7*%
X30215000Y-19250000D03*
X32040000Y-19250000D03*
%TD*%
D12*
%TO.C,R6*%
X22490000Y-12815000D03*
X22490000Y-10990000D03*
%TD*%
%TO.C,R5*%
X25390000Y-12865000D03*
X25390000Y-11040000D03*
%TD*%
%TO.C,R4*%
X16920000Y-12785000D03*
X16920000Y-10960000D03*
%TD*%
%TO.C,R3*%
X19680000Y-12785000D03*
X19680000Y-10960000D03*
%TD*%
%TO.C,R2*%
X28320000Y-12805000D03*
X28320000Y-10980000D03*
%TD*%
%TO.C,R1*%
X14100000Y-12785000D03*
X14100000Y-10960000D03*
%TD*%
D13*
%TO.C,U1*%
X22440000Y-15175000D03*
X22440000Y-15825000D03*
X22440000Y-16475000D03*
X22440000Y-17125000D03*
X22440000Y-17775000D03*
X22440000Y-18425000D03*
X22440000Y-19075000D03*
X22440000Y-19725000D03*
X22440000Y-20375000D03*
X22440000Y-21025000D03*
X22440000Y-21675000D03*
X22440000Y-22325000D03*
X22440000Y-22975000D03*
X22440000Y-23625000D03*
X28165000Y-23625000D03*
X28165000Y-22975000D03*
X28165000Y-22325000D03*
X28165000Y-21675000D03*
X28165000Y-21025000D03*
X28165000Y-20375000D03*
X28165000Y-19725000D03*
X28165000Y-19075000D03*
X28165000Y-18425000D03*
X28165000Y-17775000D03*
X28165000Y-17125000D03*
X28165000Y-16475000D03*
X28165000Y-15825000D03*
X28165000Y-15175000D03*
%TD*%
M02*
