M48
; DRILL file {KiCad 8.0.1} date 2024-04-22T23:19:17-0700
; FORMAT={-:-/ absolute / inch / decimal}
; #@! TF.CreationDate,2024-04-22T23:19:17-07:00
; #@! TF.GenerationSoftware,Kicad,Pcbnew,8.0.1
; #@! TF.FileFunction,Plated,1,2,PTH
FMAT,2
INCH
; #@! TA.AperFunction,Plated,PTH,ViaDrill
T1C0.0118
; #@! TA.AperFunction,Plated,PTH,ComponentDrill
T2C0.0315
; #@! TA.AperFunction,Plated,PTH,ComponentDrill
T3C0.0394
; #@! TA.AperFunction,Plated,PTH,ComponentDrill
T4C0.0520
; #@! TA.AperFunction,Plated,PTH,ComponentDrill
T5C0.0984
; #@! TA.AperFunction,Plated,PTH,ComponentDrill
T6C0.1181
%
G90
G05
T1
X0.0197Y-0.8807
X0.0319Y-1.0031
X0.2933Y-2.274
X0.4839Y-0.0646
X0.5693Y-0.0488
X0.598Y-0.3819
X0.6106Y-0.5024
X0.6831Y-0.7039
X0.6996Y-0.3795
X0.7134Y-0.5
X0.7264Y-0.6173
X0.7335Y-0.7303
X0.774Y-0.9362
X0.8Y-0.937
X0.8134Y-0.3799
X0.8217Y-0.5201
X0.828Y-0.937
X0.8807Y-2.0992
X0.8925Y-2.0071
X0.9177Y-0.3776
X0.9307Y-0.5433
X0.9484Y-0.7591
X0.9536Y-0.728
X0.9646Y-0.6642
X1.0465Y-0.5079
X1.048Y-0.3941
X1.0488Y-0.6327
X1.1012Y-1.1559
X1.1378Y-0.5697
X1.1386Y-1.1154
X1.1535Y-0.3669
X1.1646Y-0.5016
X1.1736Y-0.6858
X1.2087Y-0.6807
X1.3583Y-0.626
X1.4118Y-0.7831
X1.4299Y-0.848
X1.7295Y-0.4535
X1.7402Y-0.3984
X2.4945Y-1.3067
X2.613Y-1.2972
X2.7417Y-0.5193
X2.789Y-0.5732
X2.9862Y-1.2752
X3.0898Y-1.2949
X3.3894Y-0.7689
X3.3972Y-0.6035
T2
X0.5504Y-1.9318
X0.5504Y-2.0696
T3
X0.2201Y-0.3268
X0.2201Y-0.4268
X0.2201Y-0.5268
X0.2201Y-0.6268
X0.2201Y-0.7268
X0.2201Y-0.8268
X0.2201Y-0.9268
X0.2201Y-1.0268
X0.2201Y-1.1268
X0.2201Y-1.2268
X0.2201Y-1.3268
X0.2201Y-1.4268
X0.2201Y-1.5268
X0.2201Y-1.6268
X1.0748Y-1.5248
X1.0748Y-1.6248
X1.1Y-1.8
X1.1Y-1.9
X1.1Y-2.0
X1.1Y-2.1
X1.1Y-2.2
X1.1Y-2.3
X1.1748Y-1.5248
X1.1748Y-1.6248
X1.2Y-1.8
X1.2Y-1.9
X1.2Y-2.0
X1.2Y-2.1
X1.2Y-2.2
X1.2Y-2.3
X1.2748Y-1.5248
X1.2748Y-1.6248
X1.3Y-1.8
X1.3Y-1.9
X1.3Y-2.0
X1.3Y-2.1
X1.3Y-2.2
X1.3Y-2.3
X1.3748Y-1.5248
X1.3748Y-1.6248
X1.4Y-1.8
X1.4Y-1.9
X1.4Y-2.0
X1.4Y-2.1
X1.4Y-2.2
X1.4Y-2.3
X1.5Y-1.8
X1.5Y-1.9
X1.5Y-2.0
X1.5Y-2.1
X1.5Y-2.2
X1.5Y-2.3
X1.6Y-1.8
X1.6Y-1.9
X1.6Y-2.0
X1.6Y-2.1
X1.6Y-2.2
X1.6Y-2.3
X1.6343Y-1.0839
X1.6343Y-1.1839
X1.6343Y-1.2839
X1.7Y-1.8
X1.7Y-1.9
X1.7Y-2.0
X1.7Y-2.1
X1.7Y-2.2
X1.7Y-2.3
X1.8Y-1.8
X1.8Y-1.9
X1.8Y-2.0
X1.8Y-2.1
X1.8Y-2.2
X1.8Y-2.3
X1.9Y-1.8
X1.9Y-1.9
X1.9Y-2.0
X1.9Y-2.1
X1.9Y-2.2
X1.9Y-2.3
X1.9051Y-1.0047
X1.9051Y-1.6047
X2.0Y-1.8
X2.0Y-1.9
X2.0Y-2.0
X2.0Y-2.1
X2.0Y-2.2
X2.0Y-2.3
X2.0051Y-1.0047
X2.0051Y-1.6047
X2.1Y-1.8
X2.1Y-1.9
X2.1Y-2.0
X2.1Y-2.1
X2.1Y-2.2
X2.1Y-2.3
X2.1051Y-1.0047
X2.1051Y-1.6047
X2.2Y-1.8
X2.2Y-1.9
X2.2Y-2.0
X2.2Y-2.1
X2.2Y-2.2
X2.2Y-2.3
X2.2051Y-1.0047
X2.2051Y-1.6047
X2.3Y-1.8
X2.3Y-1.9
X2.3Y-2.0
X2.3Y-2.1
X2.3Y-2.2
X2.3Y-2.3
X2.3051Y-1.0047
X2.3051Y-1.6047
X2.3067Y-0.8469
X2.4Y-1.8
X2.4Y-1.9
X2.4Y-2.0
X2.4Y-2.1
X2.4Y-2.2
X2.4Y-2.3
X2.4051Y-1.0047
X2.4051Y-1.6047
X2.4067Y-0.8469
X2.5Y-1.8
X2.5Y-1.9
X2.5Y-2.0
X2.5Y-2.1
X2.5Y-2.2
X2.5Y-2.3
X2.5051Y-1.0047
X2.5051Y-1.6047
X2.5067Y-0.8469
X2.6Y-1.8
X2.6Y-1.9
X2.6Y-2.0
X2.6Y-2.1
X2.6Y-2.2
X2.6Y-2.3
X2.6051Y-1.0047
X2.6051Y-1.6047
X2.7Y-1.8
X2.7Y-1.9
X2.7Y-2.0
X2.7Y-2.1
X2.7Y-2.2
X2.7Y-2.3
X2.7051Y-1.0047
X2.7051Y-1.6047
X2.8Y-1.8
X2.8Y-1.9
X2.8Y-2.0
X2.8Y-2.1
X2.8Y-2.2
X2.8Y-2.3
X2.8051Y-1.0047
X2.8051Y-1.6047
X2.9Y-1.8
X2.9Y-1.9
X2.9Y-2.0
X2.9Y-2.1
X2.9Y-2.2
X2.9Y-2.3
X2.9051Y-1.0047
X2.9051Y-1.6047
X3.0Y-1.8
X3.0Y-1.9
X3.0Y-2.0
X3.0Y-2.1
X3.0Y-2.2
X3.0Y-2.3
X3.0051Y-1.0047
X3.0051Y-1.6047
X3.1Y-1.8
X3.1Y-1.9
X3.1Y-2.0
X3.1Y-2.1
X3.1Y-2.2
X3.1Y-2.3
X3.1051Y-1.0047
X3.1051Y-1.6047
X3.2Y-1.8
X3.2Y-1.9
X3.2Y-2.0
X3.2Y-2.1
X3.2Y-2.2
X3.2Y-2.3
X3.2051Y-1.0047
X3.2051Y-1.6047
X3.3Y-1.8
X3.3Y-1.9
X3.3Y-2.0
X3.3Y-2.1
X3.3Y-2.2
X3.3Y-2.3
X3.3051Y-1.0047
X3.3051Y-1.6047
X3.4Y-1.8
X3.4Y-1.9
X3.4Y-2.0
X3.4Y-2.1
X3.4Y-2.2
X3.4Y-2.3
X3.5Y-1.8
X3.5Y-1.9
X3.5Y-2.0
X3.5Y-2.1
X3.5Y-2.2
X3.5Y-2.3
T4
X0.1102Y-1.9
X0.1102Y-2.0969
X1.9299Y-0.1366
X2.1268Y-0.1366
X2.3236Y-0.1366
X2.5205Y-0.1366
X2.8189Y-0.139
X3.0157Y-0.139
X3.2126Y-0.139
X3.4094Y-0.139
T5
X1.7272Y-0.8067
X2.0343Y-0.8087
T6
X0.0Y0.0
X0.0Y-1.5748
X1.5748Y0.0
X1.5748Y-1.5748
M30
