%TF.GenerationSoftware,KiCad,Pcbnew,8.0.1*%
%TF.CreationDate,2024-04-22T23:19:20-07:00*%
%TF.ProjectId,ThrottleControlBoard,5468726f-7474-46c6-9543-6f6e74726f6c,rev?*%
%TF.SameCoordinates,Original*%
%TF.FileFunction,Legend,Top*%
%TF.FilePolarity,Positive*%
%FSLAX46Y46*%
G04 Gerber Fmt 4.6, Leading zero omitted, Abs format (unit mm)*
G04 Created by KiCad (PCBNEW 8.0.1) date 2024-04-22 23:19:20*
%MOMM*%
%LPD*%
G01*
G04 APERTURE LIST*
%ADD10C,0.300000*%
%ADD11C,0.100000*%
%ADD12C,0.200000*%
%ADD13C,0.150000*%
%ADD14C,0.120000*%
G04 APERTURE END LIST*
D10*
X9784510Y-58100828D02*
X9784510Y-56600828D01*
X9784510Y-56600828D02*
X10141653Y-56600828D01*
X10141653Y-56600828D02*
X10355939Y-56672257D01*
X10355939Y-56672257D02*
X10498796Y-56815114D01*
X10498796Y-56815114D02*
X10570225Y-56957971D01*
X10570225Y-56957971D02*
X10641653Y-57243685D01*
X10641653Y-57243685D02*
X10641653Y-57457971D01*
X10641653Y-57457971D02*
X10570225Y-57743685D01*
X10570225Y-57743685D02*
X10498796Y-57886542D01*
X10498796Y-57886542D02*
X10355939Y-58029400D01*
X10355939Y-58029400D02*
X10141653Y-58100828D01*
X10141653Y-58100828D02*
X9784510Y-58100828D01*
X11784510Y-57315114D02*
X11998796Y-57386542D01*
X11998796Y-57386542D02*
X12070225Y-57457971D01*
X12070225Y-57457971D02*
X12141653Y-57600828D01*
X12141653Y-57600828D02*
X12141653Y-57815114D01*
X12141653Y-57815114D02*
X12070225Y-57957971D01*
X12070225Y-57957971D02*
X11998796Y-58029400D01*
X11998796Y-58029400D02*
X11855939Y-58100828D01*
X11855939Y-58100828D02*
X11284510Y-58100828D01*
X11284510Y-58100828D02*
X11284510Y-56600828D01*
X11284510Y-56600828D02*
X11784510Y-56600828D01*
X11784510Y-56600828D02*
X11927368Y-56672257D01*
X11927368Y-56672257D02*
X11998796Y-56743685D01*
X11998796Y-56743685D02*
X12070225Y-56886542D01*
X12070225Y-56886542D02*
X12070225Y-57029400D01*
X12070225Y-57029400D02*
X11998796Y-57172257D01*
X11998796Y-57172257D02*
X11927368Y-57243685D01*
X11927368Y-57243685D02*
X11784510Y-57315114D01*
X11784510Y-57315114D02*
X11284510Y-57315114D01*
X12641653Y-56600828D02*
X12998796Y-58100828D01*
X12998796Y-58100828D02*
X13284510Y-57029400D01*
X13284510Y-57029400D02*
X13570225Y-58100828D01*
X13570225Y-58100828D02*
X13927368Y-56600828D01*
X16284511Y-58029400D02*
X16141653Y-58100828D01*
X16141653Y-58100828D02*
X15855939Y-58100828D01*
X15855939Y-58100828D02*
X15713082Y-58029400D01*
X15713082Y-58029400D02*
X15641653Y-57957971D01*
X15641653Y-57957971D02*
X15570225Y-57815114D01*
X15570225Y-57815114D02*
X15570225Y-57386542D01*
X15570225Y-57386542D02*
X15641653Y-57243685D01*
X15641653Y-57243685D02*
X15713082Y-57172257D01*
X15713082Y-57172257D02*
X15855939Y-57100828D01*
X15855939Y-57100828D02*
X16141653Y-57100828D01*
X16141653Y-57100828D02*
X16284511Y-57172257D01*
X17141653Y-58100828D02*
X16998796Y-58029400D01*
X16998796Y-58029400D02*
X16927367Y-57957971D01*
X16927367Y-57957971D02*
X16855939Y-57815114D01*
X16855939Y-57815114D02*
X16855939Y-57386542D01*
X16855939Y-57386542D02*
X16927367Y-57243685D01*
X16927367Y-57243685D02*
X16998796Y-57172257D01*
X16998796Y-57172257D02*
X17141653Y-57100828D01*
X17141653Y-57100828D02*
X17355939Y-57100828D01*
X17355939Y-57100828D02*
X17498796Y-57172257D01*
X17498796Y-57172257D02*
X17570225Y-57243685D01*
X17570225Y-57243685D02*
X17641653Y-57386542D01*
X17641653Y-57386542D02*
X17641653Y-57815114D01*
X17641653Y-57815114D02*
X17570225Y-57957971D01*
X17570225Y-57957971D02*
X17498796Y-58029400D01*
X17498796Y-58029400D02*
X17355939Y-58100828D01*
X17355939Y-58100828D02*
X17141653Y-58100828D01*
X18284510Y-57100828D02*
X18284510Y-58100828D01*
X18284510Y-57243685D02*
X18355939Y-57172257D01*
X18355939Y-57172257D02*
X18498796Y-57100828D01*
X18498796Y-57100828D02*
X18713082Y-57100828D01*
X18713082Y-57100828D02*
X18855939Y-57172257D01*
X18855939Y-57172257D02*
X18927368Y-57315114D01*
X18927368Y-57315114D02*
X18927368Y-58100828D01*
X19427368Y-57100828D02*
X19998796Y-57100828D01*
X19641653Y-56600828D02*
X19641653Y-57886542D01*
X19641653Y-57886542D02*
X19713082Y-58029400D01*
X19713082Y-58029400D02*
X19855939Y-58100828D01*
X19855939Y-58100828D02*
X19998796Y-58100828D01*
X20498796Y-58100828D02*
X20498796Y-57100828D01*
X20498796Y-57386542D02*
X20570225Y-57243685D01*
X20570225Y-57243685D02*
X20641654Y-57172257D01*
X20641654Y-57172257D02*
X20784511Y-57100828D01*
X20784511Y-57100828D02*
X20927368Y-57100828D01*
X21641653Y-58100828D02*
X21498796Y-58029400D01*
X21498796Y-58029400D02*
X21427367Y-57957971D01*
X21427367Y-57957971D02*
X21355939Y-57815114D01*
X21355939Y-57815114D02*
X21355939Y-57386542D01*
X21355939Y-57386542D02*
X21427367Y-57243685D01*
X21427367Y-57243685D02*
X21498796Y-57172257D01*
X21498796Y-57172257D02*
X21641653Y-57100828D01*
X21641653Y-57100828D02*
X21855939Y-57100828D01*
X21855939Y-57100828D02*
X21998796Y-57172257D01*
X21998796Y-57172257D02*
X22070225Y-57243685D01*
X22070225Y-57243685D02*
X22141653Y-57386542D01*
X22141653Y-57386542D02*
X22141653Y-57815114D01*
X22141653Y-57815114D02*
X22070225Y-57957971D01*
X22070225Y-57957971D02*
X21998796Y-58029400D01*
X21998796Y-58029400D02*
X21855939Y-58100828D01*
X21855939Y-58100828D02*
X21641653Y-58100828D01*
X22998796Y-58100828D02*
X22855939Y-58029400D01*
X22855939Y-58029400D02*
X22784510Y-57886542D01*
X22784510Y-57886542D02*
X22784510Y-56600828D01*
X23784510Y-58100828D02*
X23641653Y-58029400D01*
X23641653Y-58029400D02*
X23570224Y-57886542D01*
X23570224Y-57886542D02*
X23570224Y-56600828D01*
X24927367Y-58029400D02*
X24784510Y-58100828D01*
X24784510Y-58100828D02*
X24498796Y-58100828D01*
X24498796Y-58100828D02*
X24355938Y-58029400D01*
X24355938Y-58029400D02*
X24284510Y-57886542D01*
X24284510Y-57886542D02*
X24284510Y-57315114D01*
X24284510Y-57315114D02*
X24355938Y-57172257D01*
X24355938Y-57172257D02*
X24498796Y-57100828D01*
X24498796Y-57100828D02*
X24784510Y-57100828D01*
X24784510Y-57100828D02*
X24927367Y-57172257D01*
X24927367Y-57172257D02*
X24998796Y-57315114D01*
X24998796Y-57315114D02*
X24998796Y-57457971D01*
X24998796Y-57457971D02*
X24284510Y-57600828D01*
X25641652Y-58100828D02*
X25641652Y-57100828D01*
X25641652Y-57386542D02*
X25713081Y-57243685D01*
X25713081Y-57243685D02*
X25784510Y-57172257D01*
X25784510Y-57172257D02*
X25927367Y-57100828D01*
X25927367Y-57100828D02*
X26070224Y-57100828D01*
D11*
X39004800Y-34843734D02*
X39052419Y-34700877D01*
X39052419Y-34700877D02*
X39052419Y-34462782D01*
X39052419Y-34462782D02*
X39004800Y-34367544D01*
X39004800Y-34367544D02*
X38957180Y-34319925D01*
X38957180Y-34319925D02*
X38861942Y-34272306D01*
X38861942Y-34272306D02*
X38766704Y-34272306D01*
X38766704Y-34272306D02*
X38671466Y-34319925D01*
X38671466Y-34319925D02*
X38623847Y-34367544D01*
X38623847Y-34367544D02*
X38576228Y-34462782D01*
X38576228Y-34462782D02*
X38528609Y-34653258D01*
X38528609Y-34653258D02*
X38480990Y-34748496D01*
X38480990Y-34748496D02*
X38433371Y-34796115D01*
X38433371Y-34796115D02*
X38338133Y-34843734D01*
X38338133Y-34843734D02*
X38242895Y-34843734D01*
X38242895Y-34843734D02*
X38147657Y-34796115D01*
X38147657Y-34796115D02*
X38100038Y-34748496D01*
X38100038Y-34748496D02*
X38052419Y-34653258D01*
X38052419Y-34653258D02*
X38052419Y-34415163D01*
X38052419Y-34415163D02*
X38100038Y-34272306D01*
X38528609Y-33843734D02*
X38528609Y-33510401D01*
X39052419Y-33367544D02*
X39052419Y-33843734D01*
X39052419Y-33843734D02*
X38052419Y-33843734D01*
X38052419Y-33843734D02*
X38052419Y-33367544D01*
X38052419Y-33081829D02*
X38052419Y-32510401D01*
X39052419Y-32796115D02*
X38052419Y-32796115D01*
X38052419Y-32177067D02*
X38861942Y-32177067D01*
X38861942Y-32177067D02*
X38957180Y-32129448D01*
X38957180Y-32129448D02*
X39004800Y-32081829D01*
X39004800Y-32081829D02*
X39052419Y-31986591D01*
X39052419Y-31986591D02*
X39052419Y-31796115D01*
X39052419Y-31796115D02*
X39004800Y-31700877D01*
X39004800Y-31700877D02*
X38957180Y-31653258D01*
X38957180Y-31653258D02*
X38861942Y-31605639D01*
X38861942Y-31605639D02*
X38052419Y-31605639D01*
X39052419Y-31129448D02*
X38052419Y-31129448D01*
X38052419Y-31129448D02*
X38052419Y-30748496D01*
X38052419Y-30748496D02*
X38100038Y-30653258D01*
X38100038Y-30653258D02*
X38147657Y-30605639D01*
X38147657Y-30605639D02*
X38242895Y-30558020D01*
X38242895Y-30558020D02*
X38385752Y-30558020D01*
X38385752Y-30558020D02*
X38480990Y-30605639D01*
X38480990Y-30605639D02*
X38528609Y-30653258D01*
X38528609Y-30653258D02*
X38576228Y-30748496D01*
X38576228Y-30748496D02*
X38576228Y-31129448D01*
X38528609Y-29367543D02*
X38528609Y-29034210D01*
X39052419Y-28891353D02*
X39052419Y-29367543D01*
X39052419Y-29367543D02*
X38052419Y-29367543D01*
X38052419Y-29367543D02*
X38052419Y-28891353D01*
X39052419Y-28462781D02*
X38052419Y-28462781D01*
X38052419Y-28462781D02*
X39052419Y-27891353D01*
X39052419Y-27891353D02*
X38052419Y-27891353D01*
X38671466Y-26653257D02*
X38671466Y-25891353D01*
X38385752Y-25415162D02*
X38671466Y-24653258D01*
X38671466Y-24653258D02*
X38957180Y-25415162D01*
X55924836Y-18603609D02*
X55924836Y-18103609D01*
X56377217Y-18603609D02*
X56377217Y-18103609D01*
X56377217Y-18579800D02*
X56329598Y-18603609D01*
X56329598Y-18603609D02*
X56234360Y-18603609D01*
X56234360Y-18603609D02*
X56186741Y-18579800D01*
X56186741Y-18579800D02*
X56162931Y-18555990D01*
X56162931Y-18555990D02*
X56139122Y-18508371D01*
X56139122Y-18508371D02*
X56139122Y-18365514D01*
X56139122Y-18365514D02*
X56162931Y-18317895D01*
X56162931Y-18317895D02*
X56186741Y-18294085D01*
X56186741Y-18294085D02*
X56234360Y-18270276D01*
X56234360Y-18270276D02*
X56329598Y-18270276D01*
X56329598Y-18270276D02*
X56377217Y-18294085D01*
X56686741Y-18603609D02*
X56639122Y-18579800D01*
X56639122Y-18579800D02*
X56615312Y-18532180D01*
X56615312Y-18532180D02*
X56615312Y-18103609D01*
X57067693Y-18579800D02*
X57020074Y-18603609D01*
X57020074Y-18603609D02*
X56924836Y-18603609D01*
X56924836Y-18603609D02*
X56877217Y-18579800D01*
X56877217Y-18579800D02*
X56853408Y-18532180D01*
X56853408Y-18532180D02*
X56853408Y-18341704D01*
X56853408Y-18341704D02*
X56877217Y-18294085D01*
X56877217Y-18294085D02*
X56924836Y-18270276D01*
X56924836Y-18270276D02*
X57020074Y-18270276D01*
X57020074Y-18270276D02*
X57067693Y-18294085D01*
X57067693Y-18294085D02*
X57091503Y-18341704D01*
X57091503Y-18341704D02*
X57091503Y-18389323D01*
X57091503Y-18389323D02*
X56853408Y-18436942D01*
X57686740Y-18270276D02*
X57686740Y-18770276D01*
X57686740Y-18294085D02*
X57734359Y-18270276D01*
X57734359Y-18270276D02*
X57829597Y-18270276D01*
X57829597Y-18270276D02*
X57877216Y-18294085D01*
X57877216Y-18294085D02*
X57901026Y-18317895D01*
X57901026Y-18317895D02*
X57924835Y-18365514D01*
X57924835Y-18365514D02*
X57924835Y-18508371D01*
X57924835Y-18508371D02*
X57901026Y-18555990D01*
X57901026Y-18555990D02*
X57877216Y-18579800D01*
X57877216Y-18579800D02*
X57829597Y-18603609D01*
X57829597Y-18603609D02*
X57734359Y-18603609D01*
X57734359Y-18603609D02*
X57686740Y-18579800D01*
X58210550Y-18603609D02*
X58162931Y-18579800D01*
X58162931Y-18579800D02*
X58139121Y-18555990D01*
X58139121Y-18555990D02*
X58115312Y-18508371D01*
X58115312Y-18508371D02*
X58115312Y-18365514D01*
X58115312Y-18365514D02*
X58139121Y-18317895D01*
X58139121Y-18317895D02*
X58162931Y-18294085D01*
X58162931Y-18294085D02*
X58210550Y-18270276D01*
X58210550Y-18270276D02*
X58281978Y-18270276D01*
X58281978Y-18270276D02*
X58329597Y-18294085D01*
X58329597Y-18294085D02*
X58353407Y-18317895D01*
X58353407Y-18317895D02*
X58377216Y-18365514D01*
X58377216Y-18365514D02*
X58377216Y-18508371D01*
X58377216Y-18508371D02*
X58353407Y-18555990D01*
X58353407Y-18555990D02*
X58329597Y-18579800D01*
X58329597Y-18579800D02*
X58281978Y-18603609D01*
X58281978Y-18603609D02*
X58210550Y-18603609D01*
X58567693Y-18579800D02*
X58615312Y-18603609D01*
X58615312Y-18603609D02*
X58710550Y-18603609D01*
X58710550Y-18603609D02*
X58758169Y-18579800D01*
X58758169Y-18579800D02*
X58781978Y-18532180D01*
X58781978Y-18532180D02*
X58781978Y-18508371D01*
X58781978Y-18508371D02*
X58758169Y-18460752D01*
X58758169Y-18460752D02*
X58710550Y-18436942D01*
X58710550Y-18436942D02*
X58639121Y-18436942D01*
X58639121Y-18436942D02*
X58591502Y-18413133D01*
X58591502Y-18413133D02*
X58567693Y-18365514D01*
X58567693Y-18365514D02*
X58567693Y-18341704D01*
X58567693Y-18341704D02*
X58591502Y-18294085D01*
X58591502Y-18294085D02*
X58639121Y-18270276D01*
X58639121Y-18270276D02*
X58710550Y-18270276D01*
X58710550Y-18270276D02*
X58758169Y-18294085D01*
X58996264Y-18603609D02*
X58996264Y-18270276D01*
X58996264Y-18103609D02*
X58972455Y-18127419D01*
X58972455Y-18127419D02*
X58996264Y-18151228D01*
X58996264Y-18151228D02*
X59020074Y-18127419D01*
X59020074Y-18127419D02*
X58996264Y-18103609D01*
X58996264Y-18103609D02*
X58996264Y-18151228D01*
X59162931Y-18270276D02*
X59353407Y-18270276D01*
X59234359Y-18103609D02*
X59234359Y-18532180D01*
X59234359Y-18532180D02*
X59258169Y-18579800D01*
X59258169Y-18579800D02*
X59305788Y-18603609D01*
X59305788Y-18603609D02*
X59353407Y-18603609D01*
X59520073Y-18603609D02*
X59520073Y-18270276D01*
X59520073Y-18103609D02*
X59496264Y-18127419D01*
X59496264Y-18127419D02*
X59520073Y-18151228D01*
X59520073Y-18151228D02*
X59543883Y-18127419D01*
X59543883Y-18127419D02*
X59520073Y-18103609D01*
X59520073Y-18103609D02*
X59520073Y-18151228D01*
X59829597Y-18603609D02*
X59781978Y-18579800D01*
X59781978Y-18579800D02*
X59758168Y-18555990D01*
X59758168Y-18555990D02*
X59734359Y-18508371D01*
X59734359Y-18508371D02*
X59734359Y-18365514D01*
X59734359Y-18365514D02*
X59758168Y-18317895D01*
X59758168Y-18317895D02*
X59781978Y-18294085D01*
X59781978Y-18294085D02*
X59829597Y-18270276D01*
X59829597Y-18270276D02*
X59901025Y-18270276D01*
X59901025Y-18270276D02*
X59948644Y-18294085D01*
X59948644Y-18294085D02*
X59972454Y-18317895D01*
X59972454Y-18317895D02*
X59996263Y-18365514D01*
X59996263Y-18365514D02*
X59996263Y-18508371D01*
X59996263Y-18508371D02*
X59972454Y-18555990D01*
X59972454Y-18555990D02*
X59948644Y-18579800D01*
X59948644Y-18579800D02*
X59901025Y-18603609D01*
X59901025Y-18603609D02*
X59829597Y-18603609D01*
X60210549Y-18270276D02*
X60210549Y-18603609D01*
X60210549Y-18317895D02*
X60234359Y-18294085D01*
X60234359Y-18294085D02*
X60281978Y-18270276D01*
X60281978Y-18270276D02*
X60353406Y-18270276D01*
X60353406Y-18270276D02*
X60401025Y-18294085D01*
X60401025Y-18294085D02*
X60424835Y-18341704D01*
X60424835Y-18341704D02*
X60424835Y-18603609D01*
X61020073Y-18603609D02*
X61401025Y-18103609D01*
X61091501Y-18103609D02*
X61139120Y-18127419D01*
X61139120Y-18127419D02*
X61162930Y-18175038D01*
X61162930Y-18175038D02*
X61139120Y-18222657D01*
X61139120Y-18222657D02*
X61091501Y-18246466D01*
X61091501Y-18246466D02*
X61043882Y-18222657D01*
X61043882Y-18222657D02*
X61020073Y-18175038D01*
X61020073Y-18175038D02*
X61043882Y-18127419D01*
X61043882Y-18127419D02*
X61091501Y-18103609D01*
X61377215Y-18579800D02*
X61401025Y-18532180D01*
X61401025Y-18532180D02*
X61377215Y-18484561D01*
X61377215Y-18484561D02*
X61329596Y-18460752D01*
X61329596Y-18460752D02*
X61281977Y-18484561D01*
X61281977Y-18484561D02*
X61258168Y-18532180D01*
X61258168Y-18532180D02*
X61281977Y-18579800D01*
X61281977Y-18579800D02*
X61329596Y-18603609D01*
X61329596Y-18603609D02*
X61377215Y-18579800D01*
X61996263Y-18341704D02*
X62377216Y-18341704D01*
X62377216Y-18484561D02*
X61996263Y-18484561D01*
X63139120Y-18794085D02*
X63115311Y-18770276D01*
X63115311Y-18770276D02*
X63067692Y-18698847D01*
X63067692Y-18698847D02*
X63043882Y-18651228D01*
X63043882Y-18651228D02*
X63020073Y-18579800D01*
X63020073Y-18579800D02*
X62996263Y-18460752D01*
X62996263Y-18460752D02*
X62996263Y-18365514D01*
X62996263Y-18365514D02*
X63020073Y-18246466D01*
X63020073Y-18246466D02*
X63043882Y-18175038D01*
X63043882Y-18175038D02*
X63067692Y-18127419D01*
X63067692Y-18127419D02*
X63115311Y-18055990D01*
X63115311Y-18055990D02*
X63139120Y-18032180D01*
X63329596Y-18603609D02*
X63329596Y-18103609D01*
X63567691Y-18603609D02*
X63567691Y-18103609D01*
X63567691Y-18103609D02*
X63686739Y-18103609D01*
X63686739Y-18103609D02*
X63758167Y-18127419D01*
X63758167Y-18127419D02*
X63805786Y-18175038D01*
X63805786Y-18175038D02*
X63829596Y-18222657D01*
X63829596Y-18222657D02*
X63853405Y-18317895D01*
X63853405Y-18317895D02*
X63853405Y-18389323D01*
X63853405Y-18389323D02*
X63829596Y-18484561D01*
X63829596Y-18484561D02*
X63805786Y-18532180D01*
X63805786Y-18532180D02*
X63758167Y-18579800D01*
X63758167Y-18579800D02*
X63686739Y-18603609D01*
X63686739Y-18603609D02*
X63567691Y-18603609D01*
X64305786Y-18603609D02*
X64067691Y-18603609D01*
X64067691Y-18603609D02*
X64067691Y-18103609D01*
X64472453Y-18341704D02*
X64639120Y-18341704D01*
X64710548Y-18603609D02*
X64472453Y-18603609D01*
X64472453Y-18603609D02*
X64472453Y-18103609D01*
X64472453Y-18103609D02*
X64710548Y-18103609D01*
X65258167Y-18270276D02*
X65377215Y-18603609D01*
X65377215Y-18603609D02*
X65496262Y-18270276D01*
X65758167Y-18603609D02*
X65710548Y-18579800D01*
X65710548Y-18579800D02*
X65686738Y-18555990D01*
X65686738Y-18555990D02*
X65662929Y-18508371D01*
X65662929Y-18508371D02*
X65662929Y-18365514D01*
X65662929Y-18365514D02*
X65686738Y-18317895D01*
X65686738Y-18317895D02*
X65710548Y-18294085D01*
X65710548Y-18294085D02*
X65758167Y-18270276D01*
X65758167Y-18270276D02*
X65829595Y-18270276D01*
X65829595Y-18270276D02*
X65877214Y-18294085D01*
X65877214Y-18294085D02*
X65901024Y-18317895D01*
X65901024Y-18317895D02*
X65924833Y-18365514D01*
X65924833Y-18365514D02*
X65924833Y-18508371D01*
X65924833Y-18508371D02*
X65901024Y-18555990D01*
X65901024Y-18555990D02*
X65877214Y-18579800D01*
X65877214Y-18579800D02*
X65829595Y-18603609D01*
X65829595Y-18603609D02*
X65758167Y-18603609D01*
X66210548Y-18603609D02*
X66162929Y-18579800D01*
X66162929Y-18579800D02*
X66139119Y-18532180D01*
X66139119Y-18532180D02*
X66139119Y-18103609D01*
X66329596Y-18270276D02*
X66520072Y-18270276D01*
X66401024Y-18103609D02*
X66401024Y-18532180D01*
X66401024Y-18532180D02*
X66424834Y-18579800D01*
X66424834Y-18579800D02*
X66472453Y-18603609D01*
X66472453Y-18603609D02*
X66520072Y-18603609D01*
X66901024Y-18603609D02*
X66901024Y-18341704D01*
X66901024Y-18341704D02*
X66877214Y-18294085D01*
X66877214Y-18294085D02*
X66829595Y-18270276D01*
X66829595Y-18270276D02*
X66734357Y-18270276D01*
X66734357Y-18270276D02*
X66686738Y-18294085D01*
X66901024Y-18579800D02*
X66853405Y-18603609D01*
X66853405Y-18603609D02*
X66734357Y-18603609D01*
X66734357Y-18603609D02*
X66686738Y-18579800D01*
X66686738Y-18579800D02*
X66662929Y-18532180D01*
X66662929Y-18532180D02*
X66662929Y-18484561D01*
X66662929Y-18484561D02*
X66686738Y-18436942D01*
X66686738Y-18436942D02*
X66734357Y-18413133D01*
X66734357Y-18413133D02*
X66853405Y-18413133D01*
X66853405Y-18413133D02*
X66901024Y-18389323D01*
X67353405Y-18270276D02*
X67353405Y-18675038D01*
X67353405Y-18675038D02*
X67329595Y-18722657D01*
X67329595Y-18722657D02*
X67305786Y-18746466D01*
X67305786Y-18746466D02*
X67258167Y-18770276D01*
X67258167Y-18770276D02*
X67186738Y-18770276D01*
X67186738Y-18770276D02*
X67139119Y-18746466D01*
X67353405Y-18579800D02*
X67305786Y-18603609D01*
X67305786Y-18603609D02*
X67210548Y-18603609D01*
X67210548Y-18603609D02*
X67162929Y-18579800D01*
X67162929Y-18579800D02*
X67139119Y-18555990D01*
X67139119Y-18555990D02*
X67115310Y-18508371D01*
X67115310Y-18508371D02*
X67115310Y-18365514D01*
X67115310Y-18365514D02*
X67139119Y-18317895D01*
X67139119Y-18317895D02*
X67162929Y-18294085D01*
X67162929Y-18294085D02*
X67210548Y-18270276D01*
X67210548Y-18270276D02*
X67305786Y-18270276D01*
X67305786Y-18270276D02*
X67353405Y-18294085D01*
X67781976Y-18579800D02*
X67734357Y-18603609D01*
X67734357Y-18603609D02*
X67639119Y-18603609D01*
X67639119Y-18603609D02*
X67591500Y-18579800D01*
X67591500Y-18579800D02*
X67567691Y-18532180D01*
X67567691Y-18532180D02*
X67567691Y-18341704D01*
X67567691Y-18341704D02*
X67591500Y-18294085D01*
X67591500Y-18294085D02*
X67639119Y-18270276D01*
X67639119Y-18270276D02*
X67734357Y-18270276D01*
X67734357Y-18270276D02*
X67781976Y-18294085D01*
X67781976Y-18294085D02*
X67805786Y-18341704D01*
X67805786Y-18341704D02*
X67805786Y-18389323D01*
X67805786Y-18389323D02*
X67567691Y-18436942D01*
X68758166Y-18079800D02*
X68329595Y-18722657D01*
X69543880Y-18103609D02*
X69305785Y-18103609D01*
X69305785Y-18103609D02*
X69281976Y-18341704D01*
X69281976Y-18341704D02*
X69305785Y-18317895D01*
X69305785Y-18317895D02*
X69353404Y-18294085D01*
X69353404Y-18294085D02*
X69472452Y-18294085D01*
X69472452Y-18294085D02*
X69520071Y-18317895D01*
X69520071Y-18317895D02*
X69543880Y-18341704D01*
X69543880Y-18341704D02*
X69567690Y-18389323D01*
X69567690Y-18389323D02*
X69567690Y-18508371D01*
X69567690Y-18508371D02*
X69543880Y-18555990D01*
X69543880Y-18555990D02*
X69520071Y-18579800D01*
X69520071Y-18579800D02*
X69472452Y-18603609D01*
X69472452Y-18603609D02*
X69353404Y-18603609D01*
X69353404Y-18603609D02*
X69305785Y-18579800D01*
X69305785Y-18579800D02*
X69281976Y-18555990D01*
X69734356Y-18794085D02*
X69758166Y-18770276D01*
X69758166Y-18770276D02*
X69805785Y-18698847D01*
X69805785Y-18698847D02*
X69829594Y-18651228D01*
X69829594Y-18651228D02*
X69853404Y-18579800D01*
X69853404Y-18579800D02*
X69877213Y-18460752D01*
X69877213Y-18460752D02*
X69877213Y-18365514D01*
X69877213Y-18365514D02*
X69853404Y-18246466D01*
X69853404Y-18246466D02*
X69829594Y-18175038D01*
X69829594Y-18175038D02*
X69805785Y-18127419D01*
X69805785Y-18127419D02*
X69758166Y-18055990D01*
X69758166Y-18055990D02*
X69734356Y-18032180D01*
X70567689Y-18103609D02*
X70567689Y-18222657D01*
X70448641Y-18175038D02*
X70567689Y-18222657D01*
X70567689Y-18222657D02*
X70686736Y-18175038D01*
X70496260Y-18317895D02*
X70567689Y-18222657D01*
X70567689Y-18222657D02*
X70639117Y-18317895D01*
X71401021Y-18794085D02*
X71377212Y-18770276D01*
X71377212Y-18770276D02*
X71329593Y-18698847D01*
X71329593Y-18698847D02*
X71305783Y-18651228D01*
X71305783Y-18651228D02*
X71281974Y-18579800D01*
X71281974Y-18579800D02*
X71258164Y-18460752D01*
X71258164Y-18460752D02*
X71258164Y-18365514D01*
X71258164Y-18365514D02*
X71281974Y-18246466D01*
X71281974Y-18246466D02*
X71305783Y-18175038D01*
X71305783Y-18175038D02*
X71329593Y-18127419D01*
X71329593Y-18127419D02*
X71377212Y-18055990D01*
X71377212Y-18055990D02*
X71401021Y-18032180D01*
X71591497Y-18603609D02*
X71591497Y-18103609D01*
X71591497Y-18103609D02*
X71758164Y-18460752D01*
X71758164Y-18460752D02*
X71924830Y-18103609D01*
X71924830Y-18103609D02*
X71924830Y-18603609D01*
X72139117Y-18460752D02*
X72377212Y-18460752D01*
X72091498Y-18603609D02*
X72258164Y-18103609D01*
X72258164Y-18103609D02*
X72424831Y-18603609D01*
X72543878Y-18103609D02*
X72877211Y-18603609D01*
X72877211Y-18103609D02*
X72543878Y-18603609D01*
X72948640Y-18651228D02*
X73329592Y-18651228D01*
X73448639Y-18603609D02*
X73448639Y-18103609D01*
X73686734Y-18603609D02*
X73686734Y-18103609D01*
X73686734Y-18103609D02*
X73805782Y-18103609D01*
X73805782Y-18103609D02*
X73877210Y-18127419D01*
X73877210Y-18127419D02*
X73924829Y-18175038D01*
X73924829Y-18175038D02*
X73948639Y-18222657D01*
X73948639Y-18222657D02*
X73972448Y-18317895D01*
X73972448Y-18317895D02*
X73972448Y-18389323D01*
X73972448Y-18389323D02*
X73948639Y-18484561D01*
X73948639Y-18484561D02*
X73924829Y-18532180D01*
X73924829Y-18532180D02*
X73877210Y-18579800D01*
X73877210Y-18579800D02*
X73805782Y-18603609D01*
X73805782Y-18603609D02*
X73686734Y-18603609D01*
X74424829Y-18603609D02*
X74186734Y-18603609D01*
X74186734Y-18603609D02*
X74186734Y-18103609D01*
X74591496Y-18341704D02*
X74758163Y-18341704D01*
X74829591Y-18603609D02*
X74591496Y-18603609D01*
X74591496Y-18603609D02*
X74591496Y-18103609D01*
X74591496Y-18103609D02*
X74829591Y-18103609D01*
X74924830Y-18651228D02*
X75305782Y-18651228D01*
X75353401Y-18103609D02*
X75639115Y-18103609D01*
X75496258Y-18603609D02*
X75496258Y-18103609D01*
X75972448Y-18341704D02*
X76043876Y-18365514D01*
X76043876Y-18365514D02*
X76067686Y-18389323D01*
X76067686Y-18389323D02*
X76091495Y-18436942D01*
X76091495Y-18436942D02*
X76091495Y-18508371D01*
X76091495Y-18508371D02*
X76067686Y-18555990D01*
X76067686Y-18555990D02*
X76043876Y-18579800D01*
X76043876Y-18579800D02*
X75996257Y-18603609D01*
X75996257Y-18603609D02*
X75805781Y-18603609D01*
X75805781Y-18603609D02*
X75805781Y-18103609D01*
X75805781Y-18103609D02*
X75972448Y-18103609D01*
X75972448Y-18103609D02*
X76020067Y-18127419D01*
X76020067Y-18127419D02*
X76043876Y-18151228D01*
X76043876Y-18151228D02*
X76067686Y-18198847D01*
X76067686Y-18198847D02*
X76067686Y-18246466D01*
X76067686Y-18246466D02*
X76043876Y-18294085D01*
X76043876Y-18294085D02*
X76020067Y-18317895D01*
X76020067Y-18317895D02*
X75972448Y-18341704D01*
X75972448Y-18341704D02*
X75805781Y-18341704D01*
X76186734Y-18651228D02*
X76567686Y-18651228D01*
X76781971Y-18103609D02*
X76877209Y-18103609D01*
X76877209Y-18103609D02*
X76924828Y-18127419D01*
X76924828Y-18127419D02*
X76972447Y-18175038D01*
X76972447Y-18175038D02*
X76996257Y-18270276D01*
X76996257Y-18270276D02*
X76996257Y-18436942D01*
X76996257Y-18436942D02*
X76972447Y-18532180D01*
X76972447Y-18532180D02*
X76924828Y-18579800D01*
X76924828Y-18579800D02*
X76877209Y-18603609D01*
X76877209Y-18603609D02*
X76781971Y-18603609D01*
X76781971Y-18603609D02*
X76734352Y-18579800D01*
X76734352Y-18579800D02*
X76686733Y-18532180D01*
X76686733Y-18532180D02*
X76662924Y-18436942D01*
X76662924Y-18436942D02*
X76662924Y-18270276D01*
X76662924Y-18270276D02*
X76686733Y-18175038D01*
X76686733Y-18175038D02*
X76734352Y-18127419D01*
X76734352Y-18127419D02*
X76781971Y-18103609D01*
X77210543Y-18603609D02*
X77210543Y-18103609D01*
X77210543Y-18103609D02*
X77401019Y-18103609D01*
X77401019Y-18103609D02*
X77448638Y-18127419D01*
X77448638Y-18127419D02*
X77472448Y-18151228D01*
X77472448Y-18151228D02*
X77496257Y-18198847D01*
X77496257Y-18198847D02*
X77496257Y-18270276D01*
X77496257Y-18270276D02*
X77472448Y-18317895D01*
X77472448Y-18317895D02*
X77448638Y-18341704D01*
X77448638Y-18341704D02*
X77401019Y-18365514D01*
X77401019Y-18365514D02*
X77210543Y-18365514D01*
X77710543Y-18341704D02*
X77877210Y-18341704D01*
X77948638Y-18603609D02*
X77710543Y-18603609D01*
X77710543Y-18603609D02*
X77710543Y-18103609D01*
X77710543Y-18103609D02*
X77948638Y-18103609D01*
X78162924Y-18603609D02*
X78162924Y-18103609D01*
X78162924Y-18103609D02*
X78448638Y-18603609D01*
X78448638Y-18603609D02*
X78448638Y-18103609D01*
X79424829Y-18079800D02*
X78996258Y-18722657D01*
X80234353Y-18603609D02*
X79948639Y-18603609D01*
X80091496Y-18603609D02*
X80091496Y-18103609D01*
X80091496Y-18103609D02*
X80043877Y-18175038D01*
X80043877Y-18175038D02*
X79996258Y-18222657D01*
X79996258Y-18222657D02*
X79948639Y-18246466D01*
X80543876Y-18103609D02*
X80591495Y-18103609D01*
X80591495Y-18103609D02*
X80639114Y-18127419D01*
X80639114Y-18127419D02*
X80662924Y-18151228D01*
X80662924Y-18151228D02*
X80686733Y-18198847D01*
X80686733Y-18198847D02*
X80710543Y-18294085D01*
X80710543Y-18294085D02*
X80710543Y-18413133D01*
X80710543Y-18413133D02*
X80686733Y-18508371D01*
X80686733Y-18508371D02*
X80662924Y-18555990D01*
X80662924Y-18555990D02*
X80639114Y-18579800D01*
X80639114Y-18579800D02*
X80591495Y-18603609D01*
X80591495Y-18603609D02*
X80543876Y-18603609D01*
X80543876Y-18603609D02*
X80496257Y-18579800D01*
X80496257Y-18579800D02*
X80472448Y-18555990D01*
X80472448Y-18555990D02*
X80448638Y-18508371D01*
X80448638Y-18508371D02*
X80424829Y-18413133D01*
X80424829Y-18413133D02*
X80424829Y-18294085D01*
X80424829Y-18294085D02*
X80448638Y-18198847D01*
X80448638Y-18198847D02*
X80472448Y-18151228D01*
X80472448Y-18151228D02*
X80496257Y-18127419D01*
X80496257Y-18127419D02*
X80543876Y-18103609D01*
X80901019Y-18151228D02*
X80924828Y-18127419D01*
X80924828Y-18127419D02*
X80972447Y-18103609D01*
X80972447Y-18103609D02*
X81091495Y-18103609D01*
X81091495Y-18103609D02*
X81139114Y-18127419D01*
X81139114Y-18127419D02*
X81162923Y-18151228D01*
X81162923Y-18151228D02*
X81186733Y-18198847D01*
X81186733Y-18198847D02*
X81186733Y-18246466D01*
X81186733Y-18246466D02*
X81162923Y-18317895D01*
X81162923Y-18317895D02*
X80877209Y-18603609D01*
X80877209Y-18603609D02*
X81186733Y-18603609D01*
X81353399Y-18103609D02*
X81662923Y-18103609D01*
X81662923Y-18103609D02*
X81496256Y-18294085D01*
X81496256Y-18294085D02*
X81567685Y-18294085D01*
X81567685Y-18294085D02*
X81615304Y-18317895D01*
X81615304Y-18317895D02*
X81639113Y-18341704D01*
X81639113Y-18341704D02*
X81662923Y-18389323D01*
X81662923Y-18389323D02*
X81662923Y-18508371D01*
X81662923Y-18508371D02*
X81639113Y-18555990D01*
X81639113Y-18555990D02*
X81615304Y-18579800D01*
X81615304Y-18579800D02*
X81567685Y-18603609D01*
X81567685Y-18603609D02*
X81424828Y-18603609D01*
X81424828Y-18603609D02*
X81377209Y-18579800D01*
X81377209Y-18579800D02*
X81353399Y-18555990D01*
X81829589Y-18794085D02*
X81853399Y-18770276D01*
X81853399Y-18770276D02*
X81901018Y-18698847D01*
X81901018Y-18698847D02*
X81924827Y-18651228D01*
X81924827Y-18651228D02*
X81948637Y-18579800D01*
X81948637Y-18579800D02*
X81972446Y-18460752D01*
X81972446Y-18460752D02*
X81972446Y-18365514D01*
X81972446Y-18365514D02*
X81948637Y-18246466D01*
X81948637Y-18246466D02*
X81924827Y-18175038D01*
X81924827Y-18175038D02*
X81901018Y-18127419D01*
X81901018Y-18127419D02*
X81853399Y-18055990D01*
X81853399Y-18055990D02*
X81829589Y-18032180D01*
X82662922Y-18103609D02*
X82662922Y-18222657D01*
X82543874Y-18175038D02*
X82662922Y-18222657D01*
X82662922Y-18222657D02*
X82781969Y-18175038D01*
X82591493Y-18317895D02*
X82662922Y-18222657D01*
X82662922Y-18222657D02*
X82734350Y-18317895D01*
X83615302Y-18603609D02*
X83329588Y-18603609D01*
X83472445Y-18603609D02*
X83472445Y-18103609D01*
X83472445Y-18103609D02*
X83424826Y-18175038D01*
X83424826Y-18175038D02*
X83377207Y-18222657D01*
X83377207Y-18222657D02*
X83329588Y-18246466D01*
X83924825Y-18103609D02*
X83972444Y-18103609D01*
X83972444Y-18103609D02*
X84020063Y-18127419D01*
X84020063Y-18127419D02*
X84043873Y-18151228D01*
X84043873Y-18151228D02*
X84067682Y-18198847D01*
X84067682Y-18198847D02*
X84091492Y-18294085D01*
X84091492Y-18294085D02*
X84091492Y-18413133D01*
X84091492Y-18413133D02*
X84067682Y-18508371D01*
X84067682Y-18508371D02*
X84043873Y-18555990D01*
X84043873Y-18555990D02*
X84020063Y-18579800D01*
X84020063Y-18579800D02*
X83972444Y-18603609D01*
X83972444Y-18603609D02*
X83924825Y-18603609D01*
X83924825Y-18603609D02*
X83877206Y-18579800D01*
X83877206Y-18579800D02*
X83853397Y-18555990D01*
X83853397Y-18555990D02*
X83829587Y-18508371D01*
X83829587Y-18508371D02*
X83805778Y-18413133D01*
X83805778Y-18413133D02*
X83805778Y-18294085D01*
X83805778Y-18294085D02*
X83829587Y-18198847D01*
X83829587Y-18198847D02*
X83853397Y-18151228D01*
X83853397Y-18151228D02*
X83877206Y-18127419D01*
X83877206Y-18127419D02*
X83924825Y-18103609D01*
X84401015Y-18103609D02*
X84448634Y-18103609D01*
X84448634Y-18103609D02*
X84496253Y-18127419D01*
X84496253Y-18127419D02*
X84520063Y-18151228D01*
X84520063Y-18151228D02*
X84543872Y-18198847D01*
X84543872Y-18198847D02*
X84567682Y-18294085D01*
X84567682Y-18294085D02*
X84567682Y-18413133D01*
X84567682Y-18413133D02*
X84543872Y-18508371D01*
X84543872Y-18508371D02*
X84520063Y-18555990D01*
X84520063Y-18555990D02*
X84496253Y-18579800D01*
X84496253Y-18579800D02*
X84448634Y-18603609D01*
X84448634Y-18603609D02*
X84401015Y-18603609D01*
X84401015Y-18603609D02*
X84353396Y-18579800D01*
X84353396Y-18579800D02*
X84329587Y-18555990D01*
X84329587Y-18555990D02*
X84305777Y-18508371D01*
X84305777Y-18508371D02*
X84281968Y-18413133D01*
X84281968Y-18413133D02*
X84281968Y-18294085D01*
X84281968Y-18294085D02*
X84305777Y-18198847D01*
X84305777Y-18198847D02*
X84329587Y-18151228D01*
X84329587Y-18151228D02*
X84353396Y-18127419D01*
X84353396Y-18127419D02*
X84401015Y-18103609D01*
D12*
X48793482Y4785161D02*
X48698244Y4832780D01*
X48698244Y4832780D02*
X48555387Y4832780D01*
X48555387Y4832780D02*
X48412530Y4785161D01*
X48412530Y4785161D02*
X48317292Y4689923D01*
X48317292Y4689923D02*
X48269673Y4594685D01*
X48269673Y4594685D02*
X48222054Y4404209D01*
X48222054Y4404209D02*
X48222054Y4261352D01*
X48222054Y4261352D02*
X48269673Y4070876D01*
X48269673Y4070876D02*
X48317292Y3975638D01*
X48317292Y3975638D02*
X48412530Y3880400D01*
X48412530Y3880400D02*
X48555387Y3832780D01*
X48555387Y3832780D02*
X48650625Y3832780D01*
X48650625Y3832780D02*
X48793482Y3880400D01*
X48793482Y3880400D02*
X48841101Y3928019D01*
X48841101Y3928019D02*
X48841101Y4261352D01*
X48841101Y4261352D02*
X48650625Y4261352D01*
X49269673Y3832780D02*
X49269673Y4832780D01*
X49269673Y4832780D02*
X49841101Y3832780D01*
X49841101Y3832780D02*
X49841101Y4832780D01*
X50317292Y3832780D02*
X50317292Y4832780D01*
X50317292Y4832780D02*
X50555387Y4832780D01*
X50555387Y4832780D02*
X50698244Y4785161D01*
X50698244Y4785161D02*
X50793482Y4689923D01*
X50793482Y4689923D02*
X50841101Y4594685D01*
X50841101Y4594685D02*
X50888720Y4404209D01*
X50888720Y4404209D02*
X50888720Y4261352D01*
X50888720Y4261352D02*
X50841101Y4070876D01*
X50841101Y4070876D02*
X50793482Y3975638D01*
X50793482Y3975638D02*
X50698244Y3880400D01*
X50698244Y3880400D02*
X50555387Y3832780D01*
X50555387Y3832780D02*
X50317292Y3832780D01*
X52079197Y3832780D02*
X52079197Y4832780D01*
X52079197Y4832780D02*
X52460149Y4832780D01*
X52460149Y4832780D02*
X52555387Y4785161D01*
X52555387Y4785161D02*
X52603006Y4737542D01*
X52603006Y4737542D02*
X52650625Y4642304D01*
X52650625Y4642304D02*
X52650625Y4499447D01*
X52650625Y4499447D02*
X52603006Y4404209D01*
X52603006Y4404209D02*
X52555387Y4356590D01*
X52555387Y4356590D02*
X52460149Y4308971D01*
X52460149Y4308971D02*
X52079197Y4308971D01*
X52936340Y4832780D02*
X53507768Y4832780D01*
X53222054Y3832780D02*
X53222054Y4832780D01*
X53841102Y3832780D02*
X53841102Y4832780D01*
X53841102Y4832780D02*
X54222054Y4832780D01*
X54222054Y4832780D02*
X54317292Y4785161D01*
X54317292Y4785161D02*
X54364911Y4737542D01*
X54364911Y4737542D02*
X54412530Y4642304D01*
X54412530Y4642304D02*
X54412530Y4499447D01*
X54412530Y4499447D02*
X54364911Y4404209D01*
X54364911Y4404209D02*
X54317292Y4356590D01*
X54317292Y4356590D02*
X54222054Y4308971D01*
X54222054Y4308971D02*
X53841102Y4308971D01*
X54793483Y3880400D02*
X54936340Y3832780D01*
X54936340Y3832780D02*
X55174435Y3832780D01*
X55174435Y3832780D02*
X55269673Y3880400D01*
X55269673Y3880400D02*
X55317292Y3928019D01*
X55317292Y3928019D02*
X55364911Y4023257D01*
X55364911Y4023257D02*
X55364911Y4118495D01*
X55364911Y4118495D02*
X55317292Y4213733D01*
X55317292Y4213733D02*
X55269673Y4261352D01*
X55269673Y4261352D02*
X55174435Y4308971D01*
X55174435Y4308971D02*
X54983959Y4356590D01*
X54983959Y4356590D02*
X54888721Y4404209D01*
X54888721Y4404209D02*
X54841102Y4451828D01*
X54841102Y4451828D02*
X54793483Y4547066D01*
X54793483Y4547066D02*
X54793483Y4642304D01*
X54793483Y4642304D02*
X54841102Y4737542D01*
X54841102Y4737542D02*
X54888721Y4785161D01*
X54888721Y4785161D02*
X54983959Y4832780D01*
X54983959Y4832780D02*
X55222054Y4832780D01*
X55222054Y4832780D02*
X55364911Y4785161D01*
X55745864Y4737542D02*
X55793483Y4785161D01*
X55793483Y4785161D02*
X55888721Y4832780D01*
X55888721Y4832780D02*
X56126816Y4832780D01*
X56126816Y4832780D02*
X56222054Y4785161D01*
X56222054Y4785161D02*
X56269673Y4737542D01*
X56269673Y4737542D02*
X56317292Y4642304D01*
X56317292Y4642304D02*
X56317292Y4547066D01*
X56317292Y4547066D02*
X56269673Y4404209D01*
X56269673Y4404209D02*
X55698245Y3832780D01*
X55698245Y3832780D02*
X56317292Y3832780D01*
X57507769Y3832780D02*
X57507769Y4832780D01*
X57507769Y4832780D02*
X57888721Y4832780D01*
X57888721Y4832780D02*
X57983959Y4785161D01*
X57983959Y4785161D02*
X58031578Y4737542D01*
X58031578Y4737542D02*
X58079197Y4642304D01*
X58079197Y4642304D02*
X58079197Y4499447D01*
X58079197Y4499447D02*
X58031578Y4404209D01*
X58031578Y4404209D02*
X57983959Y4356590D01*
X57983959Y4356590D02*
X57888721Y4308971D01*
X57888721Y4308971D02*
X57507769Y4308971D01*
X58364912Y4832780D02*
X58936340Y4832780D01*
X58650626Y3832780D02*
X58650626Y4832780D01*
X59269674Y3832780D02*
X59269674Y4832780D01*
X59269674Y4832780D02*
X59650626Y4832780D01*
X59650626Y4832780D02*
X59745864Y4785161D01*
X59745864Y4785161D02*
X59793483Y4737542D01*
X59793483Y4737542D02*
X59841102Y4642304D01*
X59841102Y4642304D02*
X59841102Y4499447D01*
X59841102Y4499447D02*
X59793483Y4404209D01*
X59793483Y4404209D02*
X59745864Y4356590D01*
X59745864Y4356590D02*
X59650626Y4308971D01*
X59650626Y4308971D02*
X59269674Y4308971D01*
X60222055Y3880400D02*
X60364912Y3832780D01*
X60364912Y3832780D02*
X60603007Y3832780D01*
X60603007Y3832780D02*
X60698245Y3880400D01*
X60698245Y3880400D02*
X60745864Y3928019D01*
X60745864Y3928019D02*
X60793483Y4023257D01*
X60793483Y4023257D02*
X60793483Y4118495D01*
X60793483Y4118495D02*
X60745864Y4213733D01*
X60745864Y4213733D02*
X60698245Y4261352D01*
X60698245Y4261352D02*
X60603007Y4308971D01*
X60603007Y4308971D02*
X60412531Y4356590D01*
X60412531Y4356590D02*
X60317293Y4404209D01*
X60317293Y4404209D02*
X60269674Y4451828D01*
X60269674Y4451828D02*
X60222055Y4547066D01*
X60222055Y4547066D02*
X60222055Y4642304D01*
X60222055Y4642304D02*
X60269674Y4737542D01*
X60269674Y4737542D02*
X60317293Y4785161D01*
X60317293Y4785161D02*
X60412531Y4832780D01*
X60412531Y4832780D02*
X60650626Y4832780D01*
X60650626Y4832780D02*
X60793483Y4785161D01*
X61745864Y3832780D02*
X61174436Y3832780D01*
X61460150Y3832780D02*
X61460150Y4832780D01*
X61460150Y4832780D02*
X61364912Y4689923D01*
X61364912Y4689923D02*
X61269674Y4594685D01*
X61269674Y4594685D02*
X61174436Y4547066D01*
X63412531Y4832780D02*
X62936341Y4832780D01*
X62936341Y4832780D02*
X62888722Y4356590D01*
X62888722Y4356590D02*
X62936341Y4404209D01*
X62936341Y4404209D02*
X63031579Y4451828D01*
X63031579Y4451828D02*
X63269674Y4451828D01*
X63269674Y4451828D02*
X63364912Y4404209D01*
X63364912Y4404209D02*
X63412531Y4356590D01*
X63412531Y4356590D02*
X63460150Y4261352D01*
X63460150Y4261352D02*
X63460150Y4023257D01*
X63460150Y4023257D02*
X63412531Y3928019D01*
X63412531Y3928019D02*
X63364912Y3880400D01*
X63364912Y3880400D02*
X63269674Y3832780D01*
X63269674Y3832780D02*
X63031579Y3832780D01*
X63031579Y3832780D02*
X62936341Y3880400D01*
X62936341Y3880400D02*
X62888722Y3928019D01*
X63745865Y4832780D02*
X64079198Y3832780D01*
X64079198Y3832780D02*
X64412531Y4832780D01*
X71293482Y4715161D02*
X71198244Y4762780D01*
X71198244Y4762780D02*
X71055387Y4762780D01*
X71055387Y4762780D02*
X70912530Y4715161D01*
X70912530Y4715161D02*
X70817292Y4619923D01*
X70817292Y4619923D02*
X70769673Y4524685D01*
X70769673Y4524685D02*
X70722054Y4334209D01*
X70722054Y4334209D02*
X70722054Y4191352D01*
X70722054Y4191352D02*
X70769673Y4000876D01*
X70769673Y4000876D02*
X70817292Y3905638D01*
X70817292Y3905638D02*
X70912530Y3810400D01*
X70912530Y3810400D02*
X71055387Y3762780D01*
X71055387Y3762780D02*
X71150625Y3762780D01*
X71150625Y3762780D02*
X71293482Y3810400D01*
X71293482Y3810400D02*
X71341101Y3858019D01*
X71341101Y3858019D02*
X71341101Y4191352D01*
X71341101Y4191352D02*
X71150625Y4191352D01*
X71769673Y3762780D02*
X71769673Y4762780D01*
X71769673Y4762780D02*
X72341101Y3762780D01*
X72341101Y3762780D02*
X72341101Y4762780D01*
X72817292Y3762780D02*
X72817292Y4762780D01*
X72817292Y4762780D02*
X73055387Y4762780D01*
X73055387Y4762780D02*
X73198244Y4715161D01*
X73198244Y4715161D02*
X73293482Y4619923D01*
X73293482Y4619923D02*
X73341101Y4524685D01*
X73341101Y4524685D02*
X73388720Y4334209D01*
X73388720Y4334209D02*
X73388720Y4191352D01*
X73388720Y4191352D02*
X73341101Y4000876D01*
X73341101Y4000876D02*
X73293482Y3905638D01*
X73293482Y3905638D02*
X73198244Y3810400D01*
X73198244Y3810400D02*
X73055387Y3762780D01*
X73055387Y3762780D02*
X72817292Y3762780D01*
X74436340Y4762780D02*
X75007768Y4762780D01*
X74722054Y3762780D02*
X74722054Y4762780D01*
X75674435Y4286590D02*
X75817292Y4238971D01*
X75817292Y4238971D02*
X75864911Y4191352D01*
X75864911Y4191352D02*
X75912530Y4096114D01*
X75912530Y4096114D02*
X75912530Y3953257D01*
X75912530Y3953257D02*
X75864911Y3858019D01*
X75864911Y3858019D02*
X75817292Y3810400D01*
X75817292Y3810400D02*
X75722054Y3762780D01*
X75722054Y3762780D02*
X75341102Y3762780D01*
X75341102Y3762780D02*
X75341102Y4762780D01*
X75341102Y4762780D02*
X75674435Y4762780D01*
X75674435Y4762780D02*
X75769673Y4715161D01*
X75769673Y4715161D02*
X75817292Y4667542D01*
X75817292Y4667542D02*
X75864911Y4572304D01*
X75864911Y4572304D02*
X75864911Y4477066D01*
X75864911Y4477066D02*
X75817292Y4381828D01*
X75817292Y4381828D02*
X75769673Y4334209D01*
X75769673Y4334209D02*
X75674435Y4286590D01*
X75674435Y4286590D02*
X75341102Y4286590D01*
X76198245Y4762780D02*
X76769673Y4762780D01*
X76483959Y3762780D02*
X76483959Y4762780D01*
X77103007Y3762780D02*
X77103007Y4762780D01*
X77103007Y4762780D02*
X77483959Y4762780D01*
X77483959Y4762780D02*
X77579197Y4715161D01*
X77579197Y4715161D02*
X77626816Y4667542D01*
X77626816Y4667542D02*
X77674435Y4572304D01*
X77674435Y4572304D02*
X77674435Y4429447D01*
X77674435Y4429447D02*
X77626816Y4334209D01*
X77626816Y4334209D02*
X77579197Y4286590D01*
X77579197Y4286590D02*
X77483959Y4238971D01*
X77483959Y4238971D02*
X77103007Y4238971D01*
X78055388Y3810400D02*
X78198245Y3762780D01*
X78198245Y3762780D02*
X78436340Y3762780D01*
X78436340Y3762780D02*
X78531578Y3810400D01*
X78531578Y3810400D02*
X78579197Y3858019D01*
X78579197Y3858019D02*
X78626816Y3953257D01*
X78626816Y3953257D02*
X78626816Y4048495D01*
X78626816Y4048495D02*
X78579197Y4143733D01*
X78579197Y4143733D02*
X78531578Y4191352D01*
X78531578Y4191352D02*
X78436340Y4238971D01*
X78436340Y4238971D02*
X78245864Y4286590D01*
X78245864Y4286590D02*
X78150626Y4334209D01*
X78150626Y4334209D02*
X78103007Y4381828D01*
X78103007Y4381828D02*
X78055388Y4477066D01*
X78055388Y4477066D02*
X78055388Y4572304D01*
X78055388Y4572304D02*
X78103007Y4667542D01*
X78103007Y4667542D02*
X78150626Y4715161D01*
X78150626Y4715161D02*
X78245864Y4762780D01*
X78245864Y4762780D02*
X78483959Y4762780D01*
X78483959Y4762780D02*
X78626816Y4715161D01*
X79007769Y4667542D02*
X79055388Y4715161D01*
X79055388Y4715161D02*
X79150626Y4762780D01*
X79150626Y4762780D02*
X79388721Y4762780D01*
X79388721Y4762780D02*
X79483959Y4715161D01*
X79483959Y4715161D02*
X79531578Y4667542D01*
X79531578Y4667542D02*
X79579197Y4572304D01*
X79579197Y4572304D02*
X79579197Y4477066D01*
X79579197Y4477066D02*
X79531578Y4334209D01*
X79531578Y4334209D02*
X78960150Y3762780D01*
X78960150Y3762780D02*
X79579197Y3762780D01*
X80626817Y4762780D02*
X81198245Y4762780D01*
X80912531Y3762780D02*
X80912531Y4762780D01*
X81864912Y4286590D02*
X82007769Y4238971D01*
X82007769Y4238971D02*
X82055388Y4191352D01*
X82055388Y4191352D02*
X82103007Y4096114D01*
X82103007Y4096114D02*
X82103007Y3953257D01*
X82103007Y3953257D02*
X82055388Y3858019D01*
X82055388Y3858019D02*
X82007769Y3810400D01*
X82007769Y3810400D02*
X81912531Y3762780D01*
X81912531Y3762780D02*
X81531579Y3762780D01*
X81531579Y3762780D02*
X81531579Y4762780D01*
X81531579Y4762780D02*
X81864912Y4762780D01*
X81864912Y4762780D02*
X81960150Y4715161D01*
X81960150Y4715161D02*
X82007769Y4667542D01*
X82007769Y4667542D02*
X82055388Y4572304D01*
X82055388Y4572304D02*
X82055388Y4477066D01*
X82055388Y4477066D02*
X82007769Y4381828D01*
X82007769Y4381828D02*
X81960150Y4334209D01*
X81960150Y4334209D02*
X81864912Y4286590D01*
X81864912Y4286590D02*
X81531579Y4286590D01*
X82388722Y4762780D02*
X82960150Y4762780D01*
X82674436Y3762780D02*
X82674436Y4762780D01*
X83293484Y3762780D02*
X83293484Y4762780D01*
X83293484Y4762780D02*
X83674436Y4762780D01*
X83674436Y4762780D02*
X83769674Y4715161D01*
X83769674Y4715161D02*
X83817293Y4667542D01*
X83817293Y4667542D02*
X83864912Y4572304D01*
X83864912Y4572304D02*
X83864912Y4429447D01*
X83864912Y4429447D02*
X83817293Y4334209D01*
X83817293Y4334209D02*
X83769674Y4286590D01*
X83769674Y4286590D02*
X83674436Y4238971D01*
X83674436Y4238971D02*
X83293484Y4238971D01*
X84245865Y3810400D02*
X84388722Y3762780D01*
X84388722Y3762780D02*
X84626817Y3762780D01*
X84626817Y3762780D02*
X84722055Y3810400D01*
X84722055Y3810400D02*
X84769674Y3858019D01*
X84769674Y3858019D02*
X84817293Y3953257D01*
X84817293Y3953257D02*
X84817293Y4048495D01*
X84817293Y4048495D02*
X84769674Y4143733D01*
X84769674Y4143733D02*
X84722055Y4191352D01*
X84722055Y4191352D02*
X84626817Y4238971D01*
X84626817Y4238971D02*
X84436341Y4286590D01*
X84436341Y4286590D02*
X84341103Y4334209D01*
X84341103Y4334209D02*
X84293484Y4381828D01*
X84293484Y4381828D02*
X84245865Y4477066D01*
X84245865Y4477066D02*
X84245865Y4572304D01*
X84245865Y4572304D02*
X84293484Y4667542D01*
X84293484Y4667542D02*
X84341103Y4715161D01*
X84341103Y4715161D02*
X84436341Y4762780D01*
X84436341Y4762780D02*
X84674436Y4762780D01*
X84674436Y4762780D02*
X84817293Y4715161D01*
X85769674Y3762780D02*
X85198246Y3762780D01*
X85483960Y3762780D02*
X85483960Y4762780D01*
X85483960Y4762780D02*
X85388722Y4619923D01*
X85388722Y4619923D02*
X85293484Y4524685D01*
X85293484Y4524685D02*
X85198246Y4477066D01*
X87436341Y4762780D02*
X86960151Y4762780D01*
X86960151Y4762780D02*
X86912532Y4286590D01*
X86912532Y4286590D02*
X86960151Y4334209D01*
X86960151Y4334209D02*
X87055389Y4381828D01*
X87055389Y4381828D02*
X87293484Y4381828D01*
X87293484Y4381828D02*
X87388722Y4334209D01*
X87388722Y4334209D02*
X87436341Y4286590D01*
X87436341Y4286590D02*
X87483960Y4191352D01*
X87483960Y4191352D02*
X87483960Y3953257D01*
X87483960Y3953257D02*
X87436341Y3858019D01*
X87436341Y3858019D02*
X87388722Y3810400D01*
X87388722Y3810400D02*
X87293484Y3762780D01*
X87293484Y3762780D02*
X87055389Y3762780D01*
X87055389Y3762780D02*
X86960151Y3810400D01*
X86960151Y3810400D02*
X86912532Y3858019D01*
X87769675Y4762780D02*
X88103008Y3762780D01*
X88103008Y3762780D02*
X88436341Y4762780D01*
D10*
X19164510Y484885D02*
X19378796Y413457D01*
X19378796Y413457D02*
X19450225Y342028D01*
X19450225Y342028D02*
X19521653Y199171D01*
X19521653Y199171D02*
X19521653Y-15114D01*
X19521653Y-15114D02*
X19450225Y-157971D01*
X19450225Y-157971D02*
X19378796Y-229400D01*
X19378796Y-229400D02*
X19235939Y-300828D01*
X19235939Y-300828D02*
X18664510Y-300828D01*
X18664510Y-300828D02*
X18664510Y1199171D01*
X18664510Y1199171D02*
X19164510Y1199171D01*
X19164510Y1199171D02*
X19307368Y1127742D01*
X19307368Y1127742D02*
X19378796Y1056314D01*
X19378796Y1056314D02*
X19450225Y913457D01*
X19450225Y913457D02*
X19450225Y770600D01*
X19450225Y770600D02*
X19378796Y627742D01*
X19378796Y627742D02*
X19307368Y556314D01*
X19307368Y556314D02*
X19164510Y484885D01*
X19164510Y484885D02*
X18664510Y484885D01*
X20164510Y270600D02*
X21307368Y270600D01*
X23664510Y484885D02*
X23878796Y413457D01*
X23878796Y413457D02*
X23950225Y342028D01*
X23950225Y342028D02*
X24021653Y199171D01*
X24021653Y199171D02*
X24021653Y-15114D01*
X24021653Y-15114D02*
X23950225Y-157971D01*
X23950225Y-157971D02*
X23878796Y-229400D01*
X23878796Y-229400D02*
X23735939Y-300828D01*
X23735939Y-300828D02*
X23164510Y-300828D01*
X23164510Y-300828D02*
X23164510Y1199171D01*
X23164510Y1199171D02*
X23664510Y1199171D01*
X23664510Y1199171D02*
X23807368Y1127742D01*
X23807368Y1127742D02*
X23878796Y1056314D01*
X23878796Y1056314D02*
X23950225Y913457D01*
X23950225Y913457D02*
X23950225Y770600D01*
X23950225Y770600D02*
X23878796Y627742D01*
X23878796Y627742D02*
X23807368Y556314D01*
X23807368Y556314D02*
X23664510Y484885D01*
X23664510Y484885D02*
X23164510Y484885D01*
X24664510Y270600D02*
X25807368Y270600D01*
X25235939Y-300828D02*
X25235939Y842028D01*
X27664510Y-300828D02*
X27664510Y1199171D01*
X27664510Y1199171D02*
X28164510Y127742D01*
X28164510Y127742D02*
X28664510Y1199171D01*
X28664510Y1199171D02*
X28664510Y-300828D01*
X29378796Y270600D02*
X30521654Y270600D01*
X29950225Y-300828D02*
X29950225Y842028D01*
X32378796Y-300828D02*
X32378796Y1199171D01*
X32378796Y1199171D02*
X32878796Y127742D01*
X32878796Y127742D02*
X33378796Y1199171D01*
X33378796Y1199171D02*
X33378796Y-300828D01*
X34093082Y270600D02*
X35235940Y270600D01*
X8973082Y-34259400D02*
X9115939Y-34330828D01*
X9115939Y-34330828D02*
X9401653Y-34330828D01*
X9401653Y-34330828D02*
X9544510Y-34259400D01*
X9544510Y-34259400D02*
X9615939Y-34116542D01*
X9615939Y-34116542D02*
X9615939Y-34045114D01*
X9615939Y-34045114D02*
X9544510Y-33902257D01*
X9544510Y-33902257D02*
X9401653Y-33830828D01*
X9401653Y-33830828D02*
X9187368Y-33830828D01*
X9187368Y-33830828D02*
X9044510Y-33759400D01*
X9044510Y-33759400D02*
X8973082Y-33616542D01*
X8973082Y-33616542D02*
X8973082Y-33545114D01*
X8973082Y-33545114D02*
X9044510Y-33402257D01*
X9044510Y-33402257D02*
X9187368Y-33330828D01*
X9187368Y-33330828D02*
X9401653Y-33330828D01*
X9401653Y-33330828D02*
X9544510Y-33402257D01*
X10473082Y-34330828D02*
X10330225Y-34259400D01*
X10330225Y-34259400D02*
X10258796Y-34187971D01*
X10258796Y-34187971D02*
X10187368Y-34045114D01*
X10187368Y-34045114D02*
X10187368Y-33616542D01*
X10187368Y-33616542D02*
X10258796Y-33473685D01*
X10258796Y-33473685D02*
X10330225Y-33402257D01*
X10330225Y-33402257D02*
X10473082Y-33330828D01*
X10473082Y-33330828D02*
X10687368Y-33330828D01*
X10687368Y-33330828D02*
X10830225Y-33402257D01*
X10830225Y-33402257D02*
X10901654Y-33473685D01*
X10901654Y-33473685D02*
X10973082Y-33616542D01*
X10973082Y-33616542D02*
X10973082Y-34045114D01*
X10973082Y-34045114D02*
X10901654Y-34187971D01*
X10901654Y-34187971D02*
X10830225Y-34259400D01*
X10830225Y-34259400D02*
X10687368Y-34330828D01*
X10687368Y-34330828D02*
X10473082Y-34330828D01*
X11830225Y-34330828D02*
X11687368Y-34259400D01*
X11687368Y-34259400D02*
X11615939Y-34116542D01*
X11615939Y-34116542D02*
X11615939Y-32830828D01*
X13044511Y-34330828D02*
X13044511Y-32830828D01*
X13044511Y-34259400D02*
X12901653Y-34330828D01*
X12901653Y-34330828D02*
X12615939Y-34330828D01*
X12615939Y-34330828D02*
X12473082Y-34259400D01*
X12473082Y-34259400D02*
X12401653Y-34187971D01*
X12401653Y-34187971D02*
X12330225Y-34045114D01*
X12330225Y-34045114D02*
X12330225Y-33616542D01*
X12330225Y-33616542D02*
X12401653Y-33473685D01*
X12401653Y-33473685D02*
X12473082Y-33402257D01*
X12473082Y-33402257D02*
X12615939Y-33330828D01*
X12615939Y-33330828D02*
X12901653Y-33330828D01*
X12901653Y-33330828D02*
X13044511Y-33402257D01*
X14330225Y-34259400D02*
X14187368Y-34330828D01*
X14187368Y-34330828D02*
X13901654Y-34330828D01*
X13901654Y-34330828D02*
X13758796Y-34259400D01*
X13758796Y-34259400D02*
X13687368Y-34116542D01*
X13687368Y-34116542D02*
X13687368Y-33545114D01*
X13687368Y-33545114D02*
X13758796Y-33402257D01*
X13758796Y-33402257D02*
X13901654Y-33330828D01*
X13901654Y-33330828D02*
X14187368Y-33330828D01*
X14187368Y-33330828D02*
X14330225Y-33402257D01*
X14330225Y-33402257D02*
X14401654Y-33545114D01*
X14401654Y-33545114D02*
X14401654Y-33687971D01*
X14401654Y-33687971D02*
X13687368Y-33830828D01*
X15044510Y-34330828D02*
X15044510Y-33330828D01*
X15044510Y-33616542D02*
X15115939Y-33473685D01*
X15115939Y-33473685D02*
X15187368Y-33402257D01*
X15187368Y-33402257D02*
X15330225Y-33330828D01*
X15330225Y-33330828D02*
X15473082Y-33330828D01*
X17544510Y-32830828D02*
X17544510Y-33902257D01*
X17544510Y-33902257D02*
X17473081Y-34116542D01*
X17473081Y-34116542D02*
X17330224Y-34259400D01*
X17330224Y-34259400D02*
X17115938Y-34330828D01*
X17115938Y-34330828D02*
X16973081Y-34330828D01*
X19044510Y-34330828D02*
X18187367Y-34330828D01*
X18615938Y-34330828D02*
X18615938Y-32830828D01*
X18615938Y-32830828D02*
X18473081Y-33045114D01*
X18473081Y-33045114D02*
X18330224Y-33187971D01*
X18330224Y-33187971D02*
X18187367Y-33259400D01*
X21044509Y-34330828D02*
X20901652Y-34259400D01*
X20901652Y-34259400D02*
X20830223Y-34187971D01*
X20830223Y-34187971D02*
X20758795Y-34045114D01*
X20758795Y-34045114D02*
X20758795Y-33616542D01*
X20758795Y-33616542D02*
X20830223Y-33473685D01*
X20830223Y-33473685D02*
X20901652Y-33402257D01*
X20901652Y-33402257D02*
X21044509Y-33330828D01*
X21044509Y-33330828D02*
X21258795Y-33330828D01*
X21258795Y-33330828D02*
X21401652Y-33402257D01*
X21401652Y-33402257D02*
X21473081Y-33473685D01*
X21473081Y-33473685D02*
X21544509Y-33616542D01*
X21544509Y-33616542D02*
X21544509Y-34045114D01*
X21544509Y-34045114D02*
X21473081Y-34187971D01*
X21473081Y-34187971D02*
X21401652Y-34259400D01*
X21401652Y-34259400D02*
X21258795Y-34330828D01*
X21258795Y-34330828D02*
X21044509Y-34330828D01*
X22187366Y-33330828D02*
X22187366Y-34330828D01*
X22187366Y-33473685D02*
X22258795Y-33402257D01*
X22258795Y-33402257D02*
X22401652Y-33330828D01*
X22401652Y-33330828D02*
X22615938Y-33330828D01*
X22615938Y-33330828D02*
X22758795Y-33402257D01*
X22758795Y-33402257D02*
X22830224Y-33545114D01*
X22830224Y-33545114D02*
X22830224Y-34330828D01*
X24687366Y-34330828D02*
X24687366Y-32830828D01*
X24687366Y-33402257D02*
X24830224Y-33330828D01*
X24830224Y-33330828D02*
X25115938Y-33330828D01*
X25115938Y-33330828D02*
X25258795Y-33402257D01*
X25258795Y-33402257D02*
X25330224Y-33473685D01*
X25330224Y-33473685D02*
X25401652Y-33616542D01*
X25401652Y-33616542D02*
X25401652Y-34045114D01*
X25401652Y-34045114D02*
X25330224Y-34187971D01*
X25330224Y-34187971D02*
X25258795Y-34259400D01*
X25258795Y-34259400D02*
X25115938Y-34330828D01*
X25115938Y-34330828D02*
X24830224Y-34330828D01*
X24830224Y-34330828D02*
X24687366Y-34259400D01*
X26687367Y-34330828D02*
X26687367Y-33545114D01*
X26687367Y-33545114D02*
X26615938Y-33402257D01*
X26615938Y-33402257D02*
X26473081Y-33330828D01*
X26473081Y-33330828D02*
X26187367Y-33330828D01*
X26187367Y-33330828D02*
X26044509Y-33402257D01*
X26687367Y-34259400D02*
X26544509Y-34330828D01*
X26544509Y-34330828D02*
X26187367Y-34330828D01*
X26187367Y-34330828D02*
X26044509Y-34259400D01*
X26044509Y-34259400D02*
X25973081Y-34116542D01*
X25973081Y-34116542D02*
X25973081Y-33973685D01*
X25973081Y-33973685D02*
X26044509Y-33830828D01*
X26044509Y-33830828D02*
X26187367Y-33759400D01*
X26187367Y-33759400D02*
X26544509Y-33759400D01*
X26544509Y-33759400D02*
X26687367Y-33687971D01*
X28044510Y-34259400D02*
X27901652Y-34330828D01*
X27901652Y-34330828D02*
X27615938Y-34330828D01*
X27615938Y-34330828D02*
X27473081Y-34259400D01*
X27473081Y-34259400D02*
X27401652Y-34187971D01*
X27401652Y-34187971D02*
X27330224Y-34045114D01*
X27330224Y-34045114D02*
X27330224Y-33616542D01*
X27330224Y-33616542D02*
X27401652Y-33473685D01*
X27401652Y-33473685D02*
X27473081Y-33402257D01*
X27473081Y-33402257D02*
X27615938Y-33330828D01*
X27615938Y-33330828D02*
X27901652Y-33330828D01*
X27901652Y-33330828D02*
X28044510Y-33402257D01*
X28687366Y-34330828D02*
X28687366Y-32830828D01*
X28830224Y-33759400D02*
X29258795Y-34330828D01*
X29258795Y-33330828D02*
X28687366Y-33902257D01*
X29830224Y-34259400D02*
X29973081Y-34330828D01*
X29973081Y-34330828D02*
X30258795Y-34330828D01*
X30258795Y-34330828D02*
X30401652Y-34259400D01*
X30401652Y-34259400D02*
X30473081Y-34116542D01*
X30473081Y-34116542D02*
X30473081Y-34045114D01*
X30473081Y-34045114D02*
X30401652Y-33902257D01*
X30401652Y-33902257D02*
X30258795Y-33830828D01*
X30258795Y-33830828D02*
X30044510Y-33830828D01*
X30044510Y-33830828D02*
X29901652Y-33759400D01*
X29901652Y-33759400D02*
X29830224Y-33616542D01*
X29830224Y-33616542D02*
X29830224Y-33545114D01*
X29830224Y-33545114D02*
X29901652Y-33402257D01*
X29901652Y-33402257D02*
X30044510Y-33330828D01*
X30044510Y-33330828D02*
X30258795Y-33330828D01*
X30258795Y-33330828D02*
X30401652Y-33402257D01*
X31115938Y-34330828D02*
X31115938Y-33330828D01*
X31115938Y-32830828D02*
X31044510Y-32902257D01*
X31044510Y-32902257D02*
X31115938Y-32973685D01*
X31115938Y-32973685D02*
X31187367Y-32902257D01*
X31187367Y-32902257D02*
X31115938Y-32830828D01*
X31115938Y-32830828D02*
X31115938Y-32973685D01*
X32473082Y-34330828D02*
X32473082Y-32830828D01*
X32473082Y-34259400D02*
X32330224Y-34330828D01*
X32330224Y-34330828D02*
X32044510Y-34330828D01*
X32044510Y-34330828D02*
X31901653Y-34259400D01*
X31901653Y-34259400D02*
X31830224Y-34187971D01*
X31830224Y-34187971D02*
X31758796Y-34045114D01*
X31758796Y-34045114D02*
X31758796Y-33616542D01*
X31758796Y-33616542D02*
X31830224Y-33473685D01*
X31830224Y-33473685D02*
X31901653Y-33402257D01*
X31901653Y-33402257D02*
X32044510Y-33330828D01*
X32044510Y-33330828D02*
X32330224Y-33330828D01*
X32330224Y-33330828D02*
X32473082Y-33402257D01*
X33758796Y-34259400D02*
X33615939Y-34330828D01*
X33615939Y-34330828D02*
X33330225Y-34330828D01*
X33330225Y-34330828D02*
X33187367Y-34259400D01*
X33187367Y-34259400D02*
X33115939Y-34116542D01*
X33115939Y-34116542D02*
X33115939Y-33545114D01*
X33115939Y-33545114D02*
X33187367Y-33402257D01*
X33187367Y-33402257D02*
X33330225Y-33330828D01*
X33330225Y-33330828D02*
X33615939Y-33330828D01*
X33615939Y-33330828D02*
X33758796Y-33402257D01*
X33758796Y-33402257D02*
X33830225Y-33545114D01*
X33830225Y-33545114D02*
X33830225Y-33687971D01*
X33830225Y-33687971D02*
X33115939Y-33830828D01*
D13*
X43168095Y-16522438D02*
X43072857Y-16474819D01*
X43072857Y-16474819D02*
X42930000Y-16474819D01*
X42930000Y-16474819D02*
X42787143Y-16522438D01*
X42787143Y-16522438D02*
X42691905Y-16617676D01*
X42691905Y-16617676D02*
X42644286Y-16712914D01*
X42644286Y-16712914D02*
X42596667Y-16903390D01*
X42596667Y-16903390D02*
X42596667Y-17046247D01*
X42596667Y-17046247D02*
X42644286Y-17236723D01*
X42644286Y-17236723D02*
X42691905Y-17331961D01*
X42691905Y-17331961D02*
X42787143Y-17427200D01*
X42787143Y-17427200D02*
X42930000Y-17474819D01*
X42930000Y-17474819D02*
X43025238Y-17474819D01*
X43025238Y-17474819D02*
X43168095Y-17427200D01*
X43168095Y-17427200D02*
X43215714Y-17379580D01*
X43215714Y-17379580D02*
X43215714Y-17046247D01*
X43215714Y-17046247D02*
X43025238Y-17046247D01*
X43644286Y-17474819D02*
X43644286Y-16474819D01*
X43644286Y-16474819D02*
X44215714Y-17474819D01*
X44215714Y-17474819D02*
X44215714Y-16474819D01*
X44691905Y-17474819D02*
X44691905Y-16474819D01*
X44691905Y-16474819D02*
X44930000Y-16474819D01*
X44930000Y-16474819D02*
X45072857Y-16522438D01*
X45072857Y-16522438D02*
X45168095Y-16617676D01*
X45168095Y-16617676D02*
X45215714Y-16712914D01*
X45215714Y-16712914D02*
X45263333Y-16903390D01*
X45263333Y-16903390D02*
X45263333Y-17046247D01*
X45263333Y-17046247D02*
X45215714Y-17236723D01*
X45215714Y-17236723D02*
X45168095Y-17331961D01*
X45168095Y-17331961D02*
X45072857Y-17427200D01*
X45072857Y-17427200D02*
X44930000Y-17474819D01*
X44930000Y-17474819D02*
X44691905Y-17474819D01*
X50312857Y-17644819D02*
X50312857Y-16644819D01*
X50789047Y-17644819D02*
X50789047Y-16644819D01*
X50789047Y-16644819D02*
X51027142Y-16644819D01*
X51027142Y-16644819D02*
X51169999Y-16692438D01*
X51169999Y-16692438D02*
X51265237Y-16787676D01*
X51265237Y-16787676D02*
X51312856Y-16882914D01*
X51312856Y-16882914D02*
X51360475Y-17073390D01*
X51360475Y-17073390D02*
X51360475Y-17216247D01*
X51360475Y-17216247D02*
X51312856Y-17406723D01*
X51312856Y-17406723D02*
X51265237Y-17501961D01*
X51265237Y-17501961D02*
X51169999Y-17597200D01*
X51169999Y-17597200D02*
X51027142Y-17644819D01*
X51027142Y-17644819D02*
X50789047Y-17644819D01*
X52265237Y-17644819D02*
X51789047Y-17644819D01*
X51789047Y-17644819D02*
X51789047Y-16644819D01*
X52598571Y-17121009D02*
X52931904Y-17121009D01*
X53074761Y-17644819D02*
X52598571Y-17644819D01*
X52598571Y-17644819D02*
X52598571Y-16644819D01*
X52598571Y-16644819D02*
X53074761Y-16644819D01*
X56714819Y-22105238D02*
X56238628Y-22438571D01*
X56714819Y-22676666D02*
X55714819Y-22676666D01*
X55714819Y-22676666D02*
X55714819Y-22295714D01*
X55714819Y-22295714D02*
X55762438Y-22200476D01*
X55762438Y-22200476D02*
X55810057Y-22152857D01*
X55810057Y-22152857D02*
X55905295Y-22105238D01*
X55905295Y-22105238D02*
X56048152Y-22105238D01*
X56048152Y-22105238D02*
X56143390Y-22152857D01*
X56143390Y-22152857D02*
X56191009Y-22200476D01*
X56191009Y-22200476D02*
X56238628Y-22295714D01*
X56238628Y-22295714D02*
X56238628Y-22676666D01*
X55714819Y-21819523D02*
X56714819Y-21486190D01*
X56714819Y-21486190D02*
X55714819Y-21152857D01*
X56714819Y-20295714D02*
X56714819Y-20867142D01*
X56714819Y-20581428D02*
X55714819Y-20581428D01*
X55714819Y-20581428D02*
X55857676Y-20676666D01*
X55857676Y-20676666D02*
X55952914Y-20771904D01*
X55952914Y-20771904D02*
X56000533Y-20867142D01*
X19589580Y-50984015D02*
X19637200Y-51031634D01*
X19637200Y-51031634D02*
X19684819Y-51174491D01*
X19684819Y-51174491D02*
X19684819Y-51269729D01*
X19684819Y-51269729D02*
X19637200Y-51412586D01*
X19637200Y-51412586D02*
X19541961Y-51507824D01*
X19541961Y-51507824D02*
X19446723Y-51555443D01*
X19446723Y-51555443D02*
X19256247Y-51603062D01*
X19256247Y-51603062D02*
X19113390Y-51603062D01*
X19113390Y-51603062D02*
X18922914Y-51555443D01*
X18922914Y-51555443D02*
X18827676Y-51507824D01*
X18827676Y-51507824D02*
X18732438Y-51412586D01*
X18732438Y-51412586D02*
X18684819Y-51269729D01*
X18684819Y-51269729D02*
X18684819Y-51174491D01*
X18684819Y-51174491D02*
X18732438Y-51031634D01*
X18732438Y-51031634D02*
X18780057Y-50984015D01*
X19113390Y-50412586D02*
X19065771Y-50507824D01*
X19065771Y-50507824D02*
X19018152Y-50555443D01*
X19018152Y-50555443D02*
X18922914Y-50603062D01*
X18922914Y-50603062D02*
X18875295Y-50603062D01*
X18875295Y-50603062D02*
X18780057Y-50555443D01*
X18780057Y-50555443D02*
X18732438Y-50507824D01*
X18732438Y-50507824D02*
X18684819Y-50412586D01*
X18684819Y-50412586D02*
X18684819Y-50222110D01*
X18684819Y-50222110D02*
X18732438Y-50126872D01*
X18732438Y-50126872D02*
X18780057Y-50079253D01*
X18780057Y-50079253D02*
X18875295Y-50031634D01*
X18875295Y-50031634D02*
X18922914Y-50031634D01*
X18922914Y-50031634D02*
X19018152Y-50079253D01*
X19018152Y-50079253D02*
X19065771Y-50126872D01*
X19065771Y-50126872D02*
X19113390Y-50222110D01*
X19113390Y-50222110D02*
X19113390Y-50412586D01*
X19113390Y-50412586D02*
X19161009Y-50507824D01*
X19161009Y-50507824D02*
X19208628Y-50555443D01*
X19208628Y-50555443D02*
X19303866Y-50603062D01*
X19303866Y-50603062D02*
X19494342Y-50603062D01*
X19494342Y-50603062D02*
X19589580Y-50555443D01*
X19589580Y-50555443D02*
X19637200Y-50507824D01*
X19637200Y-50507824D02*
X19684819Y-50412586D01*
X19684819Y-50412586D02*
X19684819Y-50222110D01*
X19684819Y-50222110D02*
X19637200Y-50126872D01*
X19637200Y-50126872D02*
X19589580Y-50079253D01*
X19589580Y-50079253D02*
X19494342Y-50031634D01*
X19494342Y-50031634D02*
X19303866Y-50031634D01*
X19303866Y-50031634D02*
X19208628Y-50079253D01*
X19208628Y-50079253D02*
X19161009Y-50126872D01*
X19161009Y-50126872D02*
X19113390Y-50222110D01*
X34735833Y-14779580D02*
X34688214Y-14827200D01*
X34688214Y-14827200D02*
X34545357Y-14874819D01*
X34545357Y-14874819D02*
X34450119Y-14874819D01*
X34450119Y-14874819D02*
X34307262Y-14827200D01*
X34307262Y-14827200D02*
X34212024Y-14731961D01*
X34212024Y-14731961D02*
X34164405Y-14636723D01*
X34164405Y-14636723D02*
X34116786Y-14446247D01*
X34116786Y-14446247D02*
X34116786Y-14303390D01*
X34116786Y-14303390D02*
X34164405Y-14112914D01*
X34164405Y-14112914D02*
X34212024Y-14017676D01*
X34212024Y-14017676D02*
X34307262Y-13922438D01*
X34307262Y-13922438D02*
X34450119Y-13874819D01*
X34450119Y-13874819D02*
X34545357Y-13874819D01*
X34545357Y-13874819D02*
X34688214Y-13922438D01*
X34688214Y-13922438D02*
X34735833Y-13970057D01*
X35116786Y-13970057D02*
X35164405Y-13922438D01*
X35164405Y-13922438D02*
X35259643Y-13874819D01*
X35259643Y-13874819D02*
X35497738Y-13874819D01*
X35497738Y-13874819D02*
X35592976Y-13922438D01*
X35592976Y-13922438D02*
X35640595Y-13970057D01*
X35640595Y-13970057D02*
X35688214Y-14065295D01*
X35688214Y-14065295D02*
X35688214Y-14160533D01*
X35688214Y-14160533D02*
X35640595Y-14303390D01*
X35640595Y-14303390D02*
X35069167Y-14874819D01*
X35069167Y-14874819D02*
X35688214Y-14874819D01*
X34665833Y-12629580D02*
X34618214Y-12677200D01*
X34618214Y-12677200D02*
X34475357Y-12724819D01*
X34475357Y-12724819D02*
X34380119Y-12724819D01*
X34380119Y-12724819D02*
X34237262Y-12677200D01*
X34237262Y-12677200D02*
X34142024Y-12581961D01*
X34142024Y-12581961D02*
X34094405Y-12486723D01*
X34094405Y-12486723D02*
X34046786Y-12296247D01*
X34046786Y-12296247D02*
X34046786Y-12153390D01*
X34046786Y-12153390D02*
X34094405Y-11962914D01*
X34094405Y-11962914D02*
X34142024Y-11867676D01*
X34142024Y-11867676D02*
X34237262Y-11772438D01*
X34237262Y-11772438D02*
X34380119Y-11724819D01*
X34380119Y-11724819D02*
X34475357Y-11724819D01*
X34475357Y-11724819D02*
X34618214Y-11772438D01*
X34618214Y-11772438D02*
X34665833Y-11820057D01*
X35618214Y-12724819D02*
X35046786Y-12724819D01*
X35332500Y-12724819D02*
X35332500Y-11724819D01*
X35332500Y-11724819D02*
X35237262Y-11867676D01*
X35237262Y-11867676D02*
X35142024Y-11962914D01*
X35142024Y-11962914D02*
X35046786Y-12010533D01*
X30960833Y-18274819D02*
X30627500Y-17798628D01*
X30389405Y-18274819D02*
X30389405Y-17274819D01*
X30389405Y-17274819D02*
X30770357Y-17274819D01*
X30770357Y-17274819D02*
X30865595Y-17322438D01*
X30865595Y-17322438D02*
X30913214Y-17370057D01*
X30913214Y-17370057D02*
X30960833Y-17465295D01*
X30960833Y-17465295D02*
X30960833Y-17608152D01*
X30960833Y-17608152D02*
X30913214Y-17703390D01*
X30913214Y-17703390D02*
X30865595Y-17751009D01*
X30865595Y-17751009D02*
X30770357Y-17798628D01*
X30770357Y-17798628D02*
X30389405Y-17798628D01*
X31294167Y-17274819D02*
X31960833Y-17274819D01*
X31960833Y-17274819D02*
X31532262Y-18274819D01*
X26496666Y-4774819D02*
X26496666Y-5489104D01*
X26496666Y-5489104D02*
X26449047Y-5631961D01*
X26449047Y-5631961D02*
X26353809Y-5727200D01*
X26353809Y-5727200D02*
X26210952Y-5774819D01*
X26210952Y-5774819D02*
X26115714Y-5774819D01*
X26972857Y-5774819D02*
X26972857Y-4774819D01*
X26972857Y-4774819D02*
X27353809Y-4774819D01*
X27353809Y-4774819D02*
X27449047Y-4822438D01*
X27449047Y-4822438D02*
X27496666Y-4870057D01*
X27496666Y-4870057D02*
X27544285Y-4965295D01*
X27544285Y-4965295D02*
X27544285Y-5108152D01*
X27544285Y-5108152D02*
X27496666Y-5203390D01*
X27496666Y-5203390D02*
X27449047Y-5251009D01*
X27449047Y-5251009D02*
X27353809Y-5298628D01*
X27353809Y-5298628D02*
X26972857Y-5298628D01*
X28449047Y-4774819D02*
X27972857Y-4774819D01*
X27972857Y-4774819D02*
X27925238Y-5251009D01*
X27925238Y-5251009D02*
X27972857Y-5203390D01*
X27972857Y-5203390D02*
X28068095Y-5155771D01*
X28068095Y-5155771D02*
X28306190Y-5155771D01*
X28306190Y-5155771D02*
X28401428Y-5203390D01*
X28401428Y-5203390D02*
X28449047Y-5251009D01*
X28449047Y-5251009D02*
X28496666Y-5346247D01*
X28496666Y-5346247D02*
X28496666Y-5584342D01*
X28496666Y-5584342D02*
X28449047Y-5679580D01*
X28449047Y-5679580D02*
X28401428Y-5727200D01*
X28401428Y-5727200D02*
X28306190Y-5774819D01*
X28306190Y-5774819D02*
X28068095Y-5774819D01*
X28068095Y-5774819D02*
X27972857Y-5727200D01*
X27972857Y-5727200D02*
X27925238Y-5679580D01*
X13256666Y-4824819D02*
X13256666Y-5539104D01*
X13256666Y-5539104D02*
X13209047Y-5681961D01*
X13209047Y-5681961D02*
X13113809Y-5777200D01*
X13113809Y-5777200D02*
X12970952Y-5824819D01*
X12970952Y-5824819D02*
X12875714Y-5824819D01*
X13732857Y-5824819D02*
X13732857Y-4824819D01*
X13732857Y-4824819D02*
X14113809Y-4824819D01*
X14113809Y-4824819D02*
X14209047Y-4872438D01*
X14209047Y-4872438D02*
X14256666Y-4920057D01*
X14256666Y-4920057D02*
X14304285Y-5015295D01*
X14304285Y-5015295D02*
X14304285Y-5158152D01*
X14304285Y-5158152D02*
X14256666Y-5253390D01*
X14256666Y-5253390D02*
X14209047Y-5301009D01*
X14209047Y-5301009D02*
X14113809Y-5348628D01*
X14113809Y-5348628D02*
X13732857Y-5348628D01*
X15161428Y-5158152D02*
X15161428Y-5824819D01*
X14923333Y-4777200D02*
X14685238Y-5491485D01*
X14685238Y-5491485D02*
X15304285Y-5491485D01*
X15956666Y-4854819D02*
X15956666Y-5569104D01*
X15956666Y-5569104D02*
X15909047Y-5711961D01*
X15909047Y-5711961D02*
X15813809Y-5807200D01*
X15813809Y-5807200D02*
X15670952Y-5854819D01*
X15670952Y-5854819D02*
X15575714Y-5854819D01*
X16432857Y-5854819D02*
X16432857Y-4854819D01*
X16432857Y-4854819D02*
X16813809Y-4854819D01*
X16813809Y-4854819D02*
X16909047Y-4902438D01*
X16909047Y-4902438D02*
X16956666Y-4950057D01*
X16956666Y-4950057D02*
X17004285Y-5045295D01*
X17004285Y-5045295D02*
X17004285Y-5188152D01*
X17004285Y-5188152D02*
X16956666Y-5283390D01*
X16956666Y-5283390D02*
X16909047Y-5331009D01*
X16909047Y-5331009D02*
X16813809Y-5378628D01*
X16813809Y-5378628D02*
X16432857Y-5378628D01*
X17337619Y-4854819D02*
X17956666Y-4854819D01*
X17956666Y-4854819D02*
X17623333Y-5235771D01*
X17623333Y-5235771D02*
X17766190Y-5235771D01*
X17766190Y-5235771D02*
X17861428Y-5283390D01*
X17861428Y-5283390D02*
X17909047Y-5331009D01*
X17909047Y-5331009D02*
X17956666Y-5426247D01*
X17956666Y-5426247D02*
X17956666Y-5664342D01*
X17956666Y-5664342D02*
X17909047Y-5759580D01*
X17909047Y-5759580D02*
X17861428Y-5807200D01*
X17861428Y-5807200D02*
X17766190Y-5854819D01*
X17766190Y-5854819D02*
X17480476Y-5854819D01*
X17480476Y-5854819D02*
X17385238Y-5807200D01*
X17385238Y-5807200D02*
X17337619Y-5759580D01*
X18536666Y-4844819D02*
X18536666Y-5559104D01*
X18536666Y-5559104D02*
X18489047Y-5701961D01*
X18489047Y-5701961D02*
X18393809Y-5797200D01*
X18393809Y-5797200D02*
X18250952Y-5844819D01*
X18250952Y-5844819D02*
X18155714Y-5844819D01*
X19012857Y-5844819D02*
X19012857Y-4844819D01*
X19012857Y-4844819D02*
X19393809Y-4844819D01*
X19393809Y-4844819D02*
X19489047Y-4892438D01*
X19489047Y-4892438D02*
X19536666Y-4940057D01*
X19536666Y-4940057D02*
X19584285Y-5035295D01*
X19584285Y-5035295D02*
X19584285Y-5178152D01*
X19584285Y-5178152D02*
X19536666Y-5273390D01*
X19536666Y-5273390D02*
X19489047Y-5321009D01*
X19489047Y-5321009D02*
X19393809Y-5368628D01*
X19393809Y-5368628D02*
X19012857Y-5368628D01*
X19965238Y-4940057D02*
X20012857Y-4892438D01*
X20012857Y-4892438D02*
X20108095Y-4844819D01*
X20108095Y-4844819D02*
X20346190Y-4844819D01*
X20346190Y-4844819D02*
X20441428Y-4892438D01*
X20441428Y-4892438D02*
X20489047Y-4940057D01*
X20489047Y-4940057D02*
X20536666Y-5035295D01*
X20536666Y-5035295D02*
X20536666Y-5130533D01*
X20536666Y-5130533D02*
X20489047Y-5273390D01*
X20489047Y-5273390D02*
X19917619Y-5844819D01*
X19917619Y-5844819D02*
X20536666Y-5844819D01*
X23946666Y-4784819D02*
X23946666Y-5499104D01*
X23946666Y-5499104D02*
X23899047Y-5641961D01*
X23899047Y-5641961D02*
X23803809Y-5737200D01*
X23803809Y-5737200D02*
X23660952Y-5784819D01*
X23660952Y-5784819D02*
X23565714Y-5784819D01*
X24422857Y-5784819D02*
X24422857Y-4784819D01*
X24422857Y-4784819D02*
X24803809Y-4784819D01*
X24803809Y-4784819D02*
X24899047Y-4832438D01*
X24899047Y-4832438D02*
X24946666Y-4880057D01*
X24946666Y-4880057D02*
X24994285Y-4975295D01*
X24994285Y-4975295D02*
X24994285Y-5118152D01*
X24994285Y-5118152D02*
X24946666Y-5213390D01*
X24946666Y-5213390D02*
X24899047Y-5261009D01*
X24899047Y-5261009D02*
X24803809Y-5308628D01*
X24803809Y-5308628D02*
X24422857Y-5308628D01*
X25613333Y-4784819D02*
X25708571Y-4784819D01*
X25708571Y-4784819D02*
X25803809Y-4832438D01*
X25803809Y-4832438D02*
X25851428Y-4880057D01*
X25851428Y-4880057D02*
X25899047Y-4975295D01*
X25899047Y-4975295D02*
X25946666Y-5165771D01*
X25946666Y-5165771D02*
X25946666Y-5403866D01*
X25946666Y-5403866D02*
X25899047Y-5594342D01*
X25899047Y-5594342D02*
X25851428Y-5689580D01*
X25851428Y-5689580D02*
X25803809Y-5737200D01*
X25803809Y-5737200D02*
X25708571Y-5784819D01*
X25708571Y-5784819D02*
X25613333Y-5784819D01*
X25613333Y-5784819D02*
X25518095Y-5737200D01*
X25518095Y-5737200D02*
X25470476Y-5689580D01*
X25470476Y-5689580D02*
X25422857Y-5594342D01*
X25422857Y-5594342D02*
X25375238Y-5403866D01*
X25375238Y-5403866D02*
X25375238Y-5165771D01*
X25375238Y-5165771D02*
X25422857Y-4975295D01*
X25422857Y-4975295D02*
X25470476Y-4880057D01*
X25470476Y-4880057D02*
X25518095Y-4832438D01*
X25518095Y-4832438D02*
X25613333Y-4784819D01*
X9244819Y-46673333D02*
X9959104Y-46673333D01*
X9959104Y-46673333D02*
X10101961Y-46720952D01*
X10101961Y-46720952D02*
X10197200Y-46816190D01*
X10197200Y-46816190D02*
X10244819Y-46959047D01*
X10244819Y-46959047D02*
X10244819Y-47054285D01*
X9244819Y-45720952D02*
X9244819Y-46197142D01*
X9244819Y-46197142D02*
X9721009Y-46244761D01*
X9721009Y-46244761D02*
X9673390Y-46197142D01*
X9673390Y-46197142D02*
X9625771Y-46101904D01*
X9625771Y-46101904D02*
X9625771Y-45863809D01*
X9625771Y-45863809D02*
X9673390Y-45768571D01*
X9673390Y-45768571D02*
X9721009Y-45720952D01*
X9721009Y-45720952D02*
X9816247Y-45673333D01*
X9816247Y-45673333D02*
X10054342Y-45673333D01*
X10054342Y-45673333D02*
X10149580Y-45720952D01*
X10149580Y-45720952D02*
X10197200Y-45768571D01*
X10197200Y-45768571D02*
X10244819Y-45863809D01*
X10244819Y-45863809D02*
X10244819Y-46101904D01*
X10244819Y-46101904D02*
X10197200Y-46197142D01*
X10197200Y-46197142D02*
X10149580Y-46244761D01*
X69326666Y-10404819D02*
X69326666Y-11119104D01*
X69326666Y-11119104D02*
X69279047Y-11261961D01*
X69279047Y-11261961D02*
X69183809Y-11357200D01*
X69183809Y-11357200D02*
X69040952Y-11404819D01*
X69040952Y-11404819D02*
X68945714Y-11404819D01*
X70231428Y-10738152D02*
X70231428Y-11404819D01*
X69993333Y-10357200D02*
X69755238Y-11071485D01*
X69755238Y-11071485D02*
X70374285Y-11071485D01*
X5256666Y-5424819D02*
X5256666Y-6139104D01*
X5256666Y-6139104D02*
X5209047Y-6281961D01*
X5209047Y-6281961D02*
X5113809Y-6377200D01*
X5113809Y-6377200D02*
X4970952Y-6424819D01*
X4970952Y-6424819D02*
X4875714Y-6424819D01*
X5637619Y-5424819D02*
X6256666Y-5424819D01*
X6256666Y-5424819D02*
X5923333Y-5805771D01*
X5923333Y-5805771D02*
X6066190Y-5805771D01*
X6066190Y-5805771D02*
X6161428Y-5853390D01*
X6161428Y-5853390D02*
X6209047Y-5901009D01*
X6209047Y-5901009D02*
X6256666Y-5996247D01*
X6256666Y-5996247D02*
X6256666Y-6234342D01*
X6256666Y-6234342D02*
X6209047Y-6329580D01*
X6209047Y-6329580D02*
X6161428Y-6377200D01*
X6161428Y-6377200D02*
X6066190Y-6424819D01*
X6066190Y-6424819D02*
X5780476Y-6424819D01*
X5780476Y-6424819D02*
X5685238Y-6377200D01*
X5685238Y-6377200D02*
X5637619Y-6329580D01*
X65856666Y-10524819D02*
X65856666Y-11239104D01*
X65856666Y-11239104D02*
X65809047Y-11381961D01*
X65809047Y-11381961D02*
X65713809Y-11477200D01*
X65713809Y-11477200D02*
X65570952Y-11524819D01*
X65570952Y-11524819D02*
X65475714Y-11524819D01*
X66285238Y-10620057D02*
X66332857Y-10572438D01*
X66332857Y-10572438D02*
X66428095Y-10524819D01*
X66428095Y-10524819D02*
X66666190Y-10524819D01*
X66666190Y-10524819D02*
X66761428Y-10572438D01*
X66761428Y-10572438D02*
X66809047Y-10620057D01*
X66809047Y-10620057D02*
X66856666Y-10715295D01*
X66856666Y-10715295D02*
X66856666Y-10810533D01*
X66856666Y-10810533D02*
X66809047Y-10953390D01*
X66809047Y-10953390D02*
X66237619Y-11524819D01*
X66237619Y-11524819D02*
X66856666Y-11524819D01*
X21514819Y-12069166D02*
X21038628Y-12402499D01*
X21514819Y-12640594D02*
X20514819Y-12640594D01*
X20514819Y-12640594D02*
X20514819Y-12259642D01*
X20514819Y-12259642D02*
X20562438Y-12164404D01*
X20562438Y-12164404D02*
X20610057Y-12116785D01*
X20610057Y-12116785D02*
X20705295Y-12069166D01*
X20705295Y-12069166D02*
X20848152Y-12069166D01*
X20848152Y-12069166D02*
X20943390Y-12116785D01*
X20943390Y-12116785D02*
X20991009Y-12164404D01*
X20991009Y-12164404D02*
X21038628Y-12259642D01*
X21038628Y-12259642D02*
X21038628Y-12640594D01*
X20514819Y-11212023D02*
X20514819Y-11402499D01*
X20514819Y-11402499D02*
X20562438Y-11497737D01*
X20562438Y-11497737D02*
X20610057Y-11545356D01*
X20610057Y-11545356D02*
X20752914Y-11640594D01*
X20752914Y-11640594D02*
X20943390Y-11688213D01*
X20943390Y-11688213D02*
X21324342Y-11688213D01*
X21324342Y-11688213D02*
X21419580Y-11640594D01*
X21419580Y-11640594D02*
X21467200Y-11592975D01*
X21467200Y-11592975D02*
X21514819Y-11497737D01*
X21514819Y-11497737D02*
X21514819Y-11307261D01*
X21514819Y-11307261D02*
X21467200Y-11212023D01*
X21467200Y-11212023D02*
X21419580Y-11164404D01*
X21419580Y-11164404D02*
X21324342Y-11116785D01*
X21324342Y-11116785D02*
X21086247Y-11116785D01*
X21086247Y-11116785D02*
X20991009Y-11164404D01*
X20991009Y-11164404D02*
X20943390Y-11212023D01*
X20943390Y-11212023D02*
X20895771Y-11307261D01*
X20895771Y-11307261D02*
X20895771Y-11497737D01*
X20895771Y-11497737D02*
X20943390Y-11592975D01*
X20943390Y-11592975D02*
X20991009Y-11640594D01*
X20991009Y-11640594D02*
X21086247Y-11688213D01*
X24414819Y-12119166D02*
X23938628Y-12452499D01*
X24414819Y-12690594D02*
X23414819Y-12690594D01*
X23414819Y-12690594D02*
X23414819Y-12309642D01*
X23414819Y-12309642D02*
X23462438Y-12214404D01*
X23462438Y-12214404D02*
X23510057Y-12166785D01*
X23510057Y-12166785D02*
X23605295Y-12119166D01*
X23605295Y-12119166D02*
X23748152Y-12119166D01*
X23748152Y-12119166D02*
X23843390Y-12166785D01*
X23843390Y-12166785D02*
X23891009Y-12214404D01*
X23891009Y-12214404D02*
X23938628Y-12309642D01*
X23938628Y-12309642D02*
X23938628Y-12690594D01*
X23414819Y-11214404D02*
X23414819Y-11690594D01*
X23414819Y-11690594D02*
X23891009Y-11738213D01*
X23891009Y-11738213D02*
X23843390Y-11690594D01*
X23843390Y-11690594D02*
X23795771Y-11595356D01*
X23795771Y-11595356D02*
X23795771Y-11357261D01*
X23795771Y-11357261D02*
X23843390Y-11262023D01*
X23843390Y-11262023D02*
X23891009Y-11214404D01*
X23891009Y-11214404D02*
X23986247Y-11166785D01*
X23986247Y-11166785D02*
X24224342Y-11166785D01*
X24224342Y-11166785D02*
X24319580Y-11214404D01*
X24319580Y-11214404D02*
X24367200Y-11262023D01*
X24367200Y-11262023D02*
X24414819Y-11357261D01*
X24414819Y-11357261D02*
X24414819Y-11595356D01*
X24414819Y-11595356D02*
X24367200Y-11690594D01*
X24367200Y-11690594D02*
X24319580Y-11738213D01*
X15944819Y-12039166D02*
X15468628Y-12372499D01*
X15944819Y-12610594D02*
X14944819Y-12610594D01*
X14944819Y-12610594D02*
X14944819Y-12229642D01*
X14944819Y-12229642D02*
X14992438Y-12134404D01*
X14992438Y-12134404D02*
X15040057Y-12086785D01*
X15040057Y-12086785D02*
X15135295Y-12039166D01*
X15135295Y-12039166D02*
X15278152Y-12039166D01*
X15278152Y-12039166D02*
X15373390Y-12086785D01*
X15373390Y-12086785D02*
X15421009Y-12134404D01*
X15421009Y-12134404D02*
X15468628Y-12229642D01*
X15468628Y-12229642D02*
X15468628Y-12610594D01*
X15278152Y-11182023D02*
X15944819Y-11182023D01*
X14897200Y-11420118D02*
X15611485Y-11658213D01*
X15611485Y-11658213D02*
X15611485Y-11039166D01*
X18704819Y-12039166D02*
X18228628Y-12372499D01*
X18704819Y-12610594D02*
X17704819Y-12610594D01*
X17704819Y-12610594D02*
X17704819Y-12229642D01*
X17704819Y-12229642D02*
X17752438Y-12134404D01*
X17752438Y-12134404D02*
X17800057Y-12086785D01*
X17800057Y-12086785D02*
X17895295Y-12039166D01*
X17895295Y-12039166D02*
X18038152Y-12039166D01*
X18038152Y-12039166D02*
X18133390Y-12086785D01*
X18133390Y-12086785D02*
X18181009Y-12134404D01*
X18181009Y-12134404D02*
X18228628Y-12229642D01*
X18228628Y-12229642D02*
X18228628Y-12610594D01*
X17704819Y-11705832D02*
X17704819Y-11086785D01*
X17704819Y-11086785D02*
X18085771Y-11420118D01*
X18085771Y-11420118D02*
X18085771Y-11277261D01*
X18085771Y-11277261D02*
X18133390Y-11182023D01*
X18133390Y-11182023D02*
X18181009Y-11134404D01*
X18181009Y-11134404D02*
X18276247Y-11086785D01*
X18276247Y-11086785D02*
X18514342Y-11086785D01*
X18514342Y-11086785D02*
X18609580Y-11134404D01*
X18609580Y-11134404D02*
X18657200Y-11182023D01*
X18657200Y-11182023D02*
X18704819Y-11277261D01*
X18704819Y-11277261D02*
X18704819Y-11562975D01*
X18704819Y-11562975D02*
X18657200Y-11658213D01*
X18657200Y-11658213D02*
X18609580Y-11705832D01*
X27344819Y-12059166D02*
X26868628Y-12392499D01*
X27344819Y-12630594D02*
X26344819Y-12630594D01*
X26344819Y-12630594D02*
X26344819Y-12249642D01*
X26344819Y-12249642D02*
X26392438Y-12154404D01*
X26392438Y-12154404D02*
X26440057Y-12106785D01*
X26440057Y-12106785D02*
X26535295Y-12059166D01*
X26535295Y-12059166D02*
X26678152Y-12059166D01*
X26678152Y-12059166D02*
X26773390Y-12106785D01*
X26773390Y-12106785D02*
X26821009Y-12154404D01*
X26821009Y-12154404D02*
X26868628Y-12249642D01*
X26868628Y-12249642D02*
X26868628Y-12630594D01*
X26440057Y-11678213D02*
X26392438Y-11630594D01*
X26392438Y-11630594D02*
X26344819Y-11535356D01*
X26344819Y-11535356D02*
X26344819Y-11297261D01*
X26344819Y-11297261D02*
X26392438Y-11202023D01*
X26392438Y-11202023D02*
X26440057Y-11154404D01*
X26440057Y-11154404D02*
X26535295Y-11106785D01*
X26535295Y-11106785D02*
X26630533Y-11106785D01*
X26630533Y-11106785D02*
X26773390Y-11154404D01*
X26773390Y-11154404D02*
X27344819Y-11725832D01*
X27344819Y-11725832D02*
X27344819Y-11106785D01*
X13124819Y-12039166D02*
X12648628Y-12372499D01*
X13124819Y-12610594D02*
X12124819Y-12610594D01*
X12124819Y-12610594D02*
X12124819Y-12229642D01*
X12124819Y-12229642D02*
X12172438Y-12134404D01*
X12172438Y-12134404D02*
X12220057Y-12086785D01*
X12220057Y-12086785D02*
X12315295Y-12039166D01*
X12315295Y-12039166D02*
X12458152Y-12039166D01*
X12458152Y-12039166D02*
X12553390Y-12086785D01*
X12553390Y-12086785D02*
X12601009Y-12134404D01*
X12601009Y-12134404D02*
X12648628Y-12229642D01*
X12648628Y-12229642D02*
X12648628Y-12610594D01*
X13124819Y-11086785D02*
X13124819Y-11658213D01*
X13124819Y-11372499D02*
X12124819Y-11372499D01*
X12124819Y-11372499D02*
X12267676Y-11467737D01*
X12267676Y-11467737D02*
X12362914Y-11562975D01*
X12362914Y-11562975D02*
X12410533Y-11658213D01*
X21226666Y-4904819D02*
X21226666Y-5619104D01*
X21226666Y-5619104D02*
X21179047Y-5761961D01*
X21179047Y-5761961D02*
X21083809Y-5857200D01*
X21083809Y-5857200D02*
X20940952Y-5904819D01*
X20940952Y-5904819D02*
X20845714Y-5904819D01*
X21702857Y-5904819D02*
X21702857Y-4904819D01*
X21702857Y-4904819D02*
X22083809Y-4904819D01*
X22083809Y-4904819D02*
X22179047Y-4952438D01*
X22179047Y-4952438D02*
X22226666Y-5000057D01*
X22226666Y-5000057D02*
X22274285Y-5095295D01*
X22274285Y-5095295D02*
X22274285Y-5238152D01*
X22274285Y-5238152D02*
X22226666Y-5333390D01*
X22226666Y-5333390D02*
X22179047Y-5381009D01*
X22179047Y-5381009D02*
X22083809Y-5428628D01*
X22083809Y-5428628D02*
X21702857Y-5428628D01*
X23226666Y-5904819D02*
X22655238Y-5904819D01*
X22940952Y-5904819D02*
X22940952Y-4904819D01*
X22940952Y-4904819D02*
X22845714Y-5047676D01*
X22845714Y-5047676D02*
X22750476Y-5142914D01*
X22750476Y-5142914D02*
X22655238Y-5190533D01*
X19608095Y-23689819D02*
X19608095Y-24499342D01*
X19608095Y-24499342D02*
X19655714Y-24594580D01*
X19655714Y-24594580D02*
X19703333Y-24642200D01*
X19703333Y-24642200D02*
X19798571Y-24689819D01*
X19798571Y-24689819D02*
X19989047Y-24689819D01*
X19989047Y-24689819D02*
X20084285Y-24642200D01*
X20084285Y-24642200D02*
X20131904Y-24594580D01*
X20131904Y-24594580D02*
X20179523Y-24499342D01*
X20179523Y-24499342D02*
X20179523Y-23689819D01*
X21179523Y-24689819D02*
X20608095Y-24689819D01*
X20893809Y-24689819D02*
X20893809Y-23689819D01*
X20893809Y-23689819D02*
X20798571Y-23832676D01*
X20798571Y-23832676D02*
X20703333Y-23927914D01*
X20703333Y-23927914D02*
X20608095Y-23975533D01*
X28456666Y-35334819D02*
X28456666Y-36049104D01*
X28456666Y-36049104D02*
X28409047Y-36191961D01*
X28409047Y-36191961D02*
X28313809Y-36287200D01*
X28313809Y-36287200D02*
X28170952Y-36334819D01*
X28170952Y-36334819D02*
X28075714Y-36334819D01*
X29456666Y-36334819D02*
X28885238Y-36334819D01*
X29170952Y-36334819D02*
X29170952Y-35334819D01*
X29170952Y-35334819D02*
X29075714Y-35477676D01*
X29075714Y-35477676D02*
X28980476Y-35572914D01*
X28980476Y-35572914D02*
X28885238Y-35620533D01*
X83404819Y-34401904D02*
X84214342Y-34401904D01*
X84214342Y-34401904D02*
X84309580Y-34354285D01*
X84309580Y-34354285D02*
X84357200Y-34306666D01*
X84357200Y-34306666D02*
X84404819Y-34211428D01*
X84404819Y-34211428D02*
X84404819Y-34020952D01*
X84404819Y-34020952D02*
X84357200Y-33925714D01*
X84357200Y-33925714D02*
X84309580Y-33878095D01*
X84309580Y-33878095D02*
X84214342Y-33830476D01*
X84214342Y-33830476D02*
X83404819Y-33830476D01*
X84357200Y-33401904D02*
X84404819Y-33259047D01*
X84404819Y-33259047D02*
X84404819Y-33020952D01*
X84404819Y-33020952D02*
X84357200Y-32925714D01*
X84357200Y-32925714D02*
X84309580Y-32878095D01*
X84309580Y-32878095D02*
X84214342Y-32830476D01*
X84214342Y-32830476D02*
X84119104Y-32830476D01*
X84119104Y-32830476D02*
X84023866Y-32878095D01*
X84023866Y-32878095D02*
X83976247Y-32925714D01*
X83976247Y-32925714D02*
X83928628Y-33020952D01*
X83928628Y-33020952D02*
X83881009Y-33211428D01*
X83881009Y-33211428D02*
X83833390Y-33306666D01*
X83833390Y-33306666D02*
X83785771Y-33354285D01*
X83785771Y-33354285D02*
X83690533Y-33401904D01*
X83690533Y-33401904D02*
X83595295Y-33401904D01*
X83595295Y-33401904D02*
X83500057Y-33354285D01*
X83500057Y-33354285D02*
X83452438Y-33306666D01*
X83452438Y-33306666D02*
X83404819Y-33211428D01*
X83404819Y-33211428D02*
X83404819Y-32973333D01*
X83404819Y-32973333D02*
X83452438Y-32830476D01*
X83881009Y-32068571D02*
X83928628Y-31925714D01*
X83928628Y-31925714D02*
X83976247Y-31878095D01*
X83976247Y-31878095D02*
X84071485Y-31830476D01*
X84071485Y-31830476D02*
X84214342Y-31830476D01*
X84214342Y-31830476D02*
X84309580Y-31878095D01*
X84309580Y-31878095D02*
X84357200Y-31925714D01*
X84357200Y-31925714D02*
X84404819Y-32020952D01*
X84404819Y-32020952D02*
X84404819Y-32401904D01*
X84404819Y-32401904D02*
X83404819Y-32401904D01*
X83404819Y-32401904D02*
X83404819Y-32068571D01*
X83404819Y-32068571D02*
X83452438Y-31973333D01*
X83452438Y-31973333D02*
X83500057Y-31925714D01*
X83500057Y-31925714D02*
X83595295Y-31878095D01*
X83595295Y-31878095D02*
X83690533Y-31878095D01*
X83690533Y-31878095D02*
X83785771Y-31925714D01*
X83785771Y-31925714D02*
X83833390Y-31973333D01*
X83833390Y-31973333D02*
X83881009Y-32068571D01*
X83881009Y-32068571D02*
X83881009Y-32401904D01*
D14*
%TO.C,TP2*%
X46170000Y-20490000D02*
G75*
G02*
X41570000Y-20490000I-2300000J0D01*
G01*
X41570000Y-20490000D02*
G75*
G02*
X46170000Y-20490000I2300000J0D01*
G01*
%TO.C,TP1*%
X53970000Y-20540000D02*
G75*
G02*
X49370000Y-20540000I-2300000J0D01*
G01*
X49370000Y-20540000D02*
G75*
G02*
X53970000Y-20540000I2300000J0D01*
G01*
%TO.C,RV1*%
X59860000Y-20180000D02*
X65000000Y-20180000D01*
X65000000Y-22840000D02*
X65000000Y-20180000D01*
X59860000Y-22840000D02*
X59860000Y-20180000D01*
X59860000Y-22840000D02*
X65000000Y-22840000D01*
X58590000Y-22840000D02*
X57260000Y-22840000D01*
X57260000Y-22840000D02*
X57260000Y-21510000D01*
%TO.C,C8*%
X16295000Y-46407651D02*
X16295000Y-47207651D01*
X16695000Y-46807651D02*
X15895000Y-46807651D01*
X18060000Y-50817349D02*
X9900000Y-50817349D01*
X18060000Y-50857349D02*
X9900000Y-50857349D01*
X18060000Y-50897349D02*
X9900000Y-50897349D01*
X18059000Y-50937349D02*
X9901000Y-50937349D01*
X18057000Y-50977349D02*
X9903000Y-50977349D01*
X18056000Y-51017349D02*
X9904000Y-51017349D01*
X18054000Y-51057349D02*
X9906000Y-51057349D01*
X18051000Y-51097349D02*
X9909000Y-51097349D01*
X18048000Y-51137349D02*
X9912000Y-51137349D01*
X18045000Y-51177349D02*
X9915000Y-51177349D01*
X18041000Y-51217349D02*
X9919000Y-51217349D01*
X18037000Y-51257349D02*
X9923000Y-51257349D01*
X18032000Y-51297349D02*
X9928000Y-51297349D01*
X18028000Y-51337349D02*
X9932000Y-51337349D01*
X18022000Y-51377349D02*
X9938000Y-51377349D01*
X18017000Y-51417349D02*
X9943000Y-51417349D01*
X18010000Y-51457349D02*
X9950000Y-51457349D01*
X18004000Y-51497349D02*
X9956000Y-51497349D01*
X17997000Y-51538349D02*
X15020000Y-51538349D01*
X12940000Y-51538349D02*
X9963000Y-51538349D01*
X17990000Y-51578349D02*
X15020000Y-51578349D01*
X12940000Y-51578349D02*
X9970000Y-51578349D01*
X17982000Y-51618349D02*
X15020000Y-51618349D01*
X12940000Y-51618349D02*
X9978000Y-51618349D01*
X17974000Y-51658349D02*
X15020000Y-51658349D01*
X12940000Y-51658349D02*
X9986000Y-51658349D01*
X17965000Y-51698349D02*
X15020000Y-51698349D01*
X12940000Y-51698349D02*
X9995000Y-51698349D01*
X17956000Y-51738349D02*
X15020000Y-51738349D01*
X12940000Y-51738349D02*
X10004000Y-51738349D01*
X17947000Y-51778349D02*
X15020000Y-51778349D01*
X12940000Y-51778349D02*
X10013000Y-51778349D01*
X17937000Y-51818349D02*
X15020000Y-51818349D01*
X12940000Y-51818349D02*
X10023000Y-51818349D01*
X17927000Y-51858349D02*
X15020000Y-51858349D01*
X12940000Y-51858349D02*
X10033000Y-51858349D01*
X17916000Y-51898349D02*
X15020000Y-51898349D01*
X12940000Y-51898349D02*
X10044000Y-51898349D01*
X17905000Y-51938349D02*
X15020000Y-51938349D01*
X12940000Y-51938349D02*
X10055000Y-51938349D01*
X17894000Y-51978349D02*
X15020000Y-51978349D01*
X12940000Y-51978349D02*
X10066000Y-51978349D01*
X17882000Y-52018349D02*
X15020000Y-52018349D01*
X12940000Y-52018349D02*
X10078000Y-52018349D01*
X17869000Y-52058349D02*
X15020000Y-52058349D01*
X12940000Y-52058349D02*
X10091000Y-52058349D01*
X17857000Y-52098349D02*
X15020000Y-52098349D01*
X12940000Y-52098349D02*
X10103000Y-52098349D01*
X17843000Y-52138349D02*
X15020000Y-52138349D01*
X12940000Y-52138349D02*
X10117000Y-52138349D01*
X17830000Y-52178349D02*
X15020000Y-52178349D01*
X12940000Y-52178349D02*
X10130000Y-52178349D01*
X17815000Y-52218349D02*
X15020000Y-52218349D01*
X12940000Y-52218349D02*
X10145000Y-52218349D01*
X17801000Y-52258349D02*
X15020000Y-52258349D01*
X12940000Y-52258349D02*
X10159000Y-52258349D01*
X17785000Y-52298349D02*
X15020000Y-52298349D01*
X12940000Y-52298349D02*
X10175000Y-52298349D01*
X17770000Y-52338349D02*
X15020000Y-52338349D01*
X12940000Y-52338349D02*
X10190000Y-52338349D01*
X17754000Y-52378349D02*
X15020000Y-52378349D01*
X12940000Y-52378349D02*
X10206000Y-52378349D01*
X17737000Y-52418349D02*
X15020000Y-52418349D01*
X12940000Y-52418349D02*
X10223000Y-52418349D01*
X17720000Y-52458349D02*
X15020000Y-52458349D01*
X12940000Y-52458349D02*
X10240000Y-52458349D01*
X17702000Y-52498349D02*
X15020000Y-52498349D01*
X12940000Y-52498349D02*
X10258000Y-52498349D01*
X17684000Y-52538349D02*
X15020000Y-52538349D01*
X12940000Y-52538349D02*
X10276000Y-52538349D01*
X17666000Y-52578349D02*
X15020000Y-52578349D01*
X12940000Y-52578349D02*
X10294000Y-52578349D01*
X17646000Y-52618349D02*
X15020000Y-52618349D01*
X12940000Y-52618349D02*
X10314000Y-52618349D01*
X17627000Y-52658349D02*
X15020000Y-52658349D01*
X12940000Y-52658349D02*
X10333000Y-52658349D01*
X17607000Y-52698349D02*
X15020000Y-52698349D01*
X12940000Y-52698349D02*
X10353000Y-52698349D01*
X17586000Y-52738349D02*
X15020000Y-52738349D01*
X12940000Y-52738349D02*
X10374000Y-52738349D01*
X17564000Y-52778349D02*
X15020000Y-52778349D01*
X12940000Y-52778349D02*
X10396000Y-52778349D01*
X17542000Y-52818349D02*
X15020000Y-52818349D01*
X12940000Y-52818349D02*
X10418000Y-52818349D01*
X17520000Y-52858349D02*
X15020000Y-52858349D01*
X12940000Y-52858349D02*
X10440000Y-52858349D01*
X17497000Y-52898349D02*
X15020000Y-52898349D01*
X12940000Y-52898349D02*
X10463000Y-52898349D01*
X17473000Y-52938349D02*
X15020000Y-52938349D01*
X12940000Y-52938349D02*
X10487000Y-52938349D01*
X17449000Y-52978349D02*
X15020000Y-52978349D01*
X12940000Y-52978349D02*
X10511000Y-52978349D01*
X17424000Y-53018349D02*
X15020000Y-53018349D01*
X12940000Y-53018349D02*
X10536000Y-53018349D01*
X17398000Y-53058349D02*
X15020000Y-53058349D01*
X12940000Y-53058349D02*
X10562000Y-53058349D01*
X17372000Y-53098349D02*
X15020000Y-53098349D01*
X12940000Y-53098349D02*
X10588000Y-53098349D01*
X17345000Y-53138349D02*
X15020000Y-53138349D01*
X12940000Y-53138349D02*
X10615000Y-53138349D01*
X17318000Y-53178349D02*
X15020000Y-53178349D01*
X12940000Y-53178349D02*
X10642000Y-53178349D01*
X17289000Y-53218349D02*
X15020000Y-53218349D01*
X12940000Y-53218349D02*
X10671000Y-53218349D01*
X17260000Y-53258349D02*
X15020000Y-53258349D01*
X12940000Y-53258349D02*
X10700000Y-53258349D01*
X17230000Y-53298349D02*
X15020000Y-53298349D01*
X12940000Y-53298349D02*
X10730000Y-53298349D01*
X17200000Y-53338349D02*
X15020000Y-53338349D01*
X12940000Y-53338349D02*
X10760000Y-53338349D01*
X17169000Y-53378349D02*
X15020000Y-53378349D01*
X12940000Y-53378349D02*
X10791000Y-53378349D01*
X17136000Y-53418349D02*
X15020000Y-53418349D01*
X12940000Y-53418349D02*
X10824000Y-53418349D01*
X17104000Y-53458349D02*
X15020000Y-53458349D01*
X12940000Y-53458349D02*
X10856000Y-53458349D01*
X17070000Y-53498349D02*
X15020000Y-53498349D01*
X12940000Y-53498349D02*
X10890000Y-53498349D01*
X17035000Y-53538349D02*
X15020000Y-53538349D01*
X12940000Y-53538349D02*
X10925000Y-53538349D01*
X16999000Y-53578349D02*
X15020000Y-53578349D01*
X12940000Y-53578349D02*
X10961000Y-53578349D01*
X16963000Y-53618349D02*
X10997000Y-53618349D01*
X16925000Y-53658349D02*
X11035000Y-53658349D01*
X16887000Y-53698349D02*
X11073000Y-53698349D01*
X16847000Y-53738349D02*
X11113000Y-53738349D01*
X16806000Y-53778349D02*
X11154000Y-53778349D01*
X16764000Y-53818349D02*
X11196000Y-53818349D01*
X16721000Y-53858349D02*
X11239000Y-53858349D01*
X16677000Y-53898349D02*
X11283000Y-53898349D01*
X16631000Y-53938349D02*
X11329000Y-53938349D01*
X16584000Y-53978349D02*
X11376000Y-53978349D01*
X16536000Y-54018349D02*
X11424000Y-54018349D01*
X16485000Y-54058349D02*
X11475000Y-54058349D01*
X16434000Y-54098349D02*
X11526000Y-54098349D01*
X16380000Y-54138349D02*
X11580000Y-54138349D01*
X16325000Y-54178349D02*
X11635000Y-54178349D01*
X16267000Y-54218349D02*
X11693000Y-54218349D01*
X16208000Y-54258349D02*
X11752000Y-54258349D01*
X16146000Y-54298349D02*
X11814000Y-54298349D01*
X16082000Y-54338349D02*
X11878000Y-54338349D01*
X16014000Y-54378349D02*
X11946000Y-54378349D01*
X15944000Y-54418349D02*
X12016000Y-54418349D01*
X15870000Y-54458349D02*
X12090000Y-54458349D01*
X15793000Y-54498349D02*
X12167000Y-54498349D01*
X15711000Y-54538349D02*
X12249000Y-54538349D01*
X15625000Y-54578349D02*
X12335000Y-54578349D01*
X15532000Y-54618349D02*
X12428000Y-54618349D01*
X15433000Y-54658349D02*
X12527000Y-54658349D01*
X15326000Y-54698349D02*
X12634000Y-54698349D01*
X15209000Y-54738349D02*
X12751000Y-54738349D01*
X15078000Y-54778349D02*
X12882000Y-54778349D01*
X14928000Y-54818349D02*
X13032000Y-54818349D01*
X14748000Y-54858349D02*
X13212000Y-54858349D01*
X14513000Y-54898349D02*
X13447000Y-54898349D01*
X18100000Y-50817349D02*
G75*
G02*
X9860000Y-50817349I-4120000J0D01*
G01*
X9860000Y-50817349D02*
G75*
G02*
X18100000Y-50817349I4120000J0D01*
G01*
%TO.C,C2*%
X31678748Y-13685000D02*
X32201252Y-13685000D01*
X31678748Y-15155000D02*
X32201252Y-15155000D01*
%TO.C,C1*%
X31678748Y-11485000D02*
X32201252Y-11485000D01*
X31678748Y-12955000D02*
X32201252Y-12955000D01*
%TO.C,SW2*%
X42840000Y-28800000D02*
X42840000Y-33940000D01*
X40180000Y-33940000D02*
X42840000Y-33940000D01*
X40180000Y-28800000D02*
X42840000Y-28800000D01*
X40180000Y-28800000D02*
X40180000Y-33940000D01*
X40180000Y-27530000D02*
X40180000Y-26200000D01*
X40180000Y-26200000D02*
X41510000Y-26200000D01*
%TO.C,R7*%
X30872776Y-18727500D02*
X31382224Y-18727500D01*
X30872776Y-19772500D02*
X31382224Y-19772500D01*
%TO.C,JP5*%
X26350000Y-9085000D02*
X26350000Y-6285000D01*
X28350000Y-9085000D02*
X26350000Y-9085000D01*
X26350000Y-6285000D02*
X28350000Y-6285000D01*
X28350000Y-6285000D02*
X28350000Y-9085000D01*
%TO.C,JP4*%
X15150000Y-6345000D02*
X15150000Y-9145000D01*
X13150000Y-6345000D02*
X15150000Y-6345000D01*
X15150000Y-9145000D02*
X13150000Y-9145000D01*
X13150000Y-9145000D02*
X13150000Y-6345000D01*
%TO.C,JP3*%
X17750000Y-6345000D02*
X17750000Y-9145000D01*
X15750000Y-6345000D02*
X17750000Y-6345000D01*
X17750000Y-9145000D02*
X15750000Y-9145000D01*
X15750000Y-9145000D02*
X15750000Y-6345000D01*
%TO.C,JP2*%
X20400000Y-6355000D02*
X20400000Y-9155000D01*
X18400000Y-6355000D02*
X20400000Y-6355000D01*
X20400000Y-9155000D02*
X18400000Y-9155000D01*
X18400000Y-9155000D02*
X18400000Y-6355000D01*
%TO.C,JP0*%
X25710000Y-6325000D02*
X25710000Y-9125000D01*
X23710000Y-6325000D02*
X25710000Y-6325000D01*
X25710000Y-9125000D02*
X23710000Y-9125000D01*
X23710000Y-9125000D02*
X23710000Y-6325000D01*
%TO.C,J5*%
X9100000Y-45610000D02*
X-3500000Y-45610000D01*
X-3500000Y-45610000D02*
X-3500000Y-55960000D01*
X4300000Y-55960000D02*
X4000000Y-56460000D01*
X-1100000Y-55960000D02*
X4300000Y-55960000D01*
X-2550000Y-55960000D02*
X-2800000Y-56460000D01*
X-3500000Y-55960000D02*
X-2550000Y-55960000D01*
X9100000Y-56460000D02*
X9100000Y-45610000D01*
X4000000Y-56460000D02*
X9100000Y-56460000D01*
X-850000Y-56460000D02*
X-1100000Y-55960000D01*
X-900000Y-56460000D02*
X-850000Y-56460000D01*
X-2800000Y-56460000D02*
X-900000Y-56460000D01*
%TO.C,J4*%
X89800000Y-9180000D02*
X89250000Y-8880000D01*
X89800000Y-7130000D02*
X89800000Y-9180000D01*
X89750000Y-2280000D02*
X89250000Y-2030000D01*
X89750000Y2770000D02*
X89750000Y-2280000D01*
X89250000Y-9830000D02*
X68950000Y-9830000D01*
X89250000Y-8880000D02*
X89250000Y-9830000D01*
X89250000Y-7430000D02*
X89800000Y-7130000D01*
X89250000Y-2030000D02*
X89250000Y-7430000D01*
X68950000Y-9830000D02*
X68950000Y2770000D01*
X68950000Y2770000D02*
X89750000Y2770000D01*
%TO.C,J3*%
X4260000Y-6970000D02*
X5590000Y-6970000D01*
X4260000Y-8300000D02*
X4260000Y-6970000D01*
X4260000Y-9570000D02*
X4260000Y-42650000D01*
X4260000Y-9570000D02*
X6920000Y-9570000D01*
X4260000Y-42650000D02*
X6920000Y-42650000D01*
X6920000Y-9570000D02*
X6920000Y-42650000D01*
%TO.C,J2*%
X67220000Y-9120000D02*
X66670000Y-8820000D01*
X67220000Y-7070000D02*
X67220000Y-9120000D01*
X67170000Y-2220000D02*
X66670000Y-1970000D01*
X67170000Y2830000D02*
X67170000Y-2220000D01*
X66670000Y-9770000D02*
X46370000Y-9770000D01*
X66670000Y-8820000D02*
X66670000Y-9770000D01*
X66670000Y-7370000D02*
X67220000Y-7070000D01*
X66670000Y-1970000D02*
X66670000Y-7370000D01*
X46370000Y-9770000D02*
X46370000Y2830000D01*
X46370000Y2830000D02*
X67170000Y2830000D01*
%TO.C,R6*%
X21967500Y-12157224D02*
X21967500Y-11647776D01*
X23012500Y-12157224D02*
X23012500Y-11647776D01*
%TO.C,R5*%
X24867500Y-12207224D02*
X24867500Y-11697776D01*
X25912500Y-12207224D02*
X25912500Y-11697776D01*
%TO.C,R4*%
X16397500Y-12127224D02*
X16397500Y-11617776D01*
X17442500Y-12127224D02*
X17442500Y-11617776D01*
%TO.C,R3*%
X19157500Y-12127224D02*
X19157500Y-11617776D01*
X20202500Y-12127224D02*
X20202500Y-11617776D01*
%TO.C,R2*%
X27797500Y-12147224D02*
X27797500Y-11637776D01*
X28842500Y-12147224D02*
X28842500Y-11637776D01*
%TO.C,R1*%
X13577500Y-12127224D02*
X13577500Y-11617776D01*
X14622500Y-12127224D02*
X14622500Y-11617776D01*
%TO.C,JP1*%
X23060000Y-6315000D02*
X23060000Y-9115000D01*
X21060000Y-6315000D02*
X23060000Y-6315000D01*
X23060000Y-9115000D02*
X21060000Y-9115000D01*
X21060000Y-9115000D02*
X21060000Y-6315000D01*
%TO.C,U1*%
X22992500Y-14440000D02*
X22992500Y-14715000D01*
X22992500Y-24360000D02*
X22992500Y-24085000D01*
X25302500Y-14440000D02*
X22992500Y-14440000D01*
X25302500Y-14440000D02*
X27612500Y-14440000D01*
X25302500Y-24360000D02*
X22992500Y-24360000D01*
X25302500Y-24360000D02*
X27612500Y-24360000D01*
X27612500Y-14440000D02*
X27612500Y-14715000D01*
X27612500Y-24360000D02*
X27612500Y-24085000D01*
X22402500Y-14715000D02*
X22162500Y-14385000D01*
X22642500Y-14385000D01*
X22402500Y-14715000D01*
G36*
X22402500Y-14715000D02*
G01*
X22162500Y-14385000D01*
X22642500Y-14385000D01*
X22402500Y-14715000D01*
G37*
%TO.C,J1*%
X36250000Y-37400000D02*
X36250000Y-38730000D01*
X34920000Y-37400000D02*
X36250000Y-37400000D01*
X33650000Y-37400000D02*
X25970000Y-37400000D01*
X33650000Y-37400000D02*
X33650000Y-40000000D01*
X25970000Y-37400000D02*
X25970000Y-42600000D01*
X36250000Y-40000000D02*
X36250000Y-42600000D01*
X33650000Y-40000000D02*
X36250000Y-40000000D01*
X36250000Y-42600000D02*
X25970000Y-42600000D01*
%TO.C,A1*%
X87890000Y-24120000D02*
X44450000Y-24120000D01*
X87890000Y-24120000D02*
X87890000Y-29200000D01*
X44450000Y-24120000D02*
X44450000Y-42160000D01*
X85220000Y-26790000D02*
X85220000Y-24120000D01*
X47120000Y-26790000D02*
X47120000Y-24120000D01*
X47120000Y-26790000D02*
X85220000Y-26790000D01*
X90430000Y-29200000D02*
X90430000Y-37080000D01*
X80010000Y-29200000D02*
X90430000Y-29200000D01*
X90430000Y-37080000D02*
X80010000Y-37080000D01*
X80010000Y-37080000D02*
X80010000Y-29200000D01*
X85220000Y-39490000D02*
X85220000Y-42160000D01*
X49660000Y-39490000D02*
X85220000Y-39490000D01*
X49660000Y-39490000D02*
X47120000Y-39490000D01*
X49660000Y-39490000D02*
X49660000Y-42160000D01*
X47120000Y-39490000D02*
X47120000Y-42160000D01*
X87890000Y-42160000D02*
X87890000Y-37080000D01*
X49660000Y-42160000D02*
X87890000Y-42160000D01*
X44450000Y-42160000D02*
X47120000Y-42160000D01*
%TD*%
M02*
