%TF.GenerationSoftware,KiCad,Pcbnew,8.0.1*%
%TF.CreationDate,2024-04-22T23:19:20-07:00*%
%TF.ProjectId,ThrottleControlBoard,5468726f-7474-46c6-9543-6f6e74726f6c,rev?*%
%TF.SameCoordinates,Original*%
%TF.FileFunction,Soldermask,Top*%
%TF.FilePolarity,Negative*%
%FSLAX46Y46*%
G04 Gerber Fmt 4.6, Leading zero omitted, Abs format (unit mm)*
G04 Created by KiCad (PCBNEW 8.0.1) date 2024-04-22 23:19:20*
%MOMM*%
%LPD*%
G01*
G04 APERTURE LIST*
G04 Aperture macros list*
%AMRoundRect*
0 Rectangle with rounded corners*
0 $1 Rounding radius*
0 $2 $3 $4 $5 $6 $7 $8 $9 X,Y pos of 4 corners*
0 Add a 4 corners polygon primitive as box body*
4,1,4,$2,$3,$4,$5,$6,$7,$8,$9,$2,$3,0*
0 Add four circle primitives for the rounded corners*
1,1,$1+$1,$2,$3*
1,1,$1+$1,$4,$5*
1,1,$1+$1,$6,$7*
1,1,$1+$1,$8,$9*
0 Add four rect primitives between the rounded corners*
20,1,$1+$1,$2,$3,$4,$5,0*
20,1,$1+$1,$4,$5,$6,$7,0*
20,1,$1+$1,$6,$7,$8,$9,0*
20,1,$1+$1,$8,$9,$2,$3,0*%
%AMFreePoly0*
4,1,6,0.500000,-0.750000,-0.650000,-0.750000,-0.150000,0.000000,-0.650000,0.750000,0.500000,0.750000,0.500000,-0.750000,0.500000,-0.750000,$1*%
%AMFreePoly1*
4,1,6,1.000000,0.000000,0.500000,-0.750000,-0.500000,-0.750000,-0.500000,0.750000,0.500000,0.750000,1.000000,0.000000,1.000000,0.000000,$1*%
G04 Aperture macros list end*
%ADD10R,1.700000X1.700000*%
%ADD11O,1.700000X1.700000*%
%ADD12C,4.000000*%
%ADD13R,1.600000X1.600000*%
%ADD14C,1.600000*%
%ADD15RoundRect,0.250000X-0.337500X-0.475000X0.337500X-0.475000X0.337500X0.475000X-0.337500X0.475000X0*%
%ADD16RoundRect,0.237500X-0.250000X-0.237500X0.250000X-0.237500X0.250000X0.237500X-0.250000X0.237500X0*%
%ADD17FreePoly0,270.000000*%
%ADD18FreePoly1,270.000000*%
%ADD19R,3.960000X1.980000*%
%ADD20O,3.960000X1.980000*%
%ADD21O,1.980000X3.960000*%
%ADD22R,1.980000X3.960000*%
%ADD23RoundRect,0.237500X0.237500X-0.250000X0.237500X0.250000X-0.237500X0.250000X-0.237500X-0.250000X0*%
%ADD24C,6.000000*%
%ADD25RoundRect,0.100000X-0.637500X-0.100000X0.637500X-0.100000X0.637500X0.100000X-0.637500X0.100000X0*%
%ADD26O,1.600000X1.600000*%
G04 APERTURE END LIST*
D10*
%TO.C,J6*%
X27940000Y-58420000D03*
D11*
X27940000Y-55880000D03*
X30480000Y-58420000D03*
X30480000Y-55880000D03*
X33020000Y-58420000D03*
X33020000Y-55880000D03*
X35560000Y-58420000D03*
X35560000Y-55880000D03*
X38100000Y-58420000D03*
X38100000Y-55880000D03*
X40640000Y-58420000D03*
X40640000Y-55880000D03*
X43180000Y-58420000D03*
X43180000Y-55880000D03*
X45720000Y-58420000D03*
X45720000Y-55880000D03*
X48260000Y-58420000D03*
X48260000Y-55880000D03*
X50800000Y-58420000D03*
X50800000Y-55880000D03*
X53340000Y-58420000D03*
X53340000Y-55880000D03*
X55880000Y-58420000D03*
X55880000Y-55880000D03*
X58420000Y-58420000D03*
X58420000Y-55880000D03*
X60960000Y-58420000D03*
X60960000Y-55880000D03*
X63500000Y-58420000D03*
X63500000Y-55880000D03*
X66040000Y-58420000D03*
X66040000Y-55880000D03*
X68580000Y-58420000D03*
X68580000Y-55880000D03*
X71120000Y-58420000D03*
X71120000Y-55880000D03*
X73660000Y-58420000D03*
X73660000Y-55880000D03*
X76200000Y-58420000D03*
X76200000Y-55880000D03*
X78740000Y-58420000D03*
X78740000Y-55880000D03*
X81280000Y-58420000D03*
X81280000Y-55880000D03*
X83820000Y-58420000D03*
X83820000Y-55880000D03*
X86360000Y-58420000D03*
X86360000Y-55880000D03*
X88900000Y-58420000D03*
X88900000Y-55880000D03*
%TD*%
D10*
%TO.C,J7*%
X27940000Y-53340000D03*
D11*
X27940000Y-50800000D03*
X30480000Y-53340000D03*
X30480000Y-50800000D03*
X33020000Y-53340000D03*
X33020000Y-50800000D03*
X35560000Y-53340000D03*
X35560000Y-50800000D03*
X38100000Y-53340000D03*
X38100000Y-50800000D03*
X40640000Y-53340000D03*
X40640000Y-50800000D03*
X43180000Y-53340000D03*
X43180000Y-50800000D03*
X45720000Y-53340000D03*
X45720000Y-50800000D03*
X48260000Y-53340000D03*
X48260000Y-50800000D03*
X50800000Y-53340000D03*
X50800000Y-50800000D03*
X53340000Y-53340000D03*
X53340000Y-50800000D03*
X55880000Y-53340000D03*
X55880000Y-50800000D03*
X58420000Y-53340000D03*
X58420000Y-50800000D03*
X60960000Y-53340000D03*
X60960000Y-50800000D03*
X63500000Y-53340000D03*
X63500000Y-50800000D03*
X66040000Y-53340000D03*
X66040000Y-50800000D03*
X68580000Y-53340000D03*
X68580000Y-50800000D03*
X71120000Y-53340000D03*
X71120000Y-50800000D03*
X73660000Y-53340000D03*
X73660000Y-50800000D03*
X76200000Y-53340000D03*
X76200000Y-50800000D03*
X78740000Y-53340000D03*
X78740000Y-50800000D03*
X81280000Y-53340000D03*
X81280000Y-50800000D03*
X83820000Y-53340000D03*
X83820000Y-50800000D03*
X86360000Y-53340000D03*
X86360000Y-50800000D03*
X88900000Y-53340000D03*
X88900000Y-50800000D03*
%TD*%
D10*
%TO.C,J10*%
X27940000Y-48260000D03*
D11*
X27940000Y-45720000D03*
X30480000Y-48260000D03*
X30480000Y-45720000D03*
X33020000Y-48260000D03*
X33020000Y-45720000D03*
X35560000Y-48260000D03*
X35560000Y-45720000D03*
X38100000Y-48260000D03*
X38100000Y-45720000D03*
X40640000Y-48260000D03*
X40640000Y-45720000D03*
X43180000Y-48260000D03*
X43180000Y-45720000D03*
X45720000Y-48260000D03*
X45720000Y-45720000D03*
X48260000Y-48260000D03*
X48260000Y-45720000D03*
X50800000Y-48260000D03*
X50800000Y-45720000D03*
X53340000Y-48260000D03*
X53340000Y-45720000D03*
X55880000Y-48260000D03*
X55880000Y-45720000D03*
X58420000Y-48260000D03*
X58420000Y-45720000D03*
X60960000Y-48260000D03*
X60960000Y-45720000D03*
X63500000Y-48260000D03*
X63500000Y-45720000D03*
X66040000Y-48260000D03*
X66040000Y-45720000D03*
X68580000Y-48260000D03*
X68580000Y-45720000D03*
X71120000Y-48260000D03*
X71120000Y-45720000D03*
X73660000Y-48260000D03*
X73660000Y-45720000D03*
X76200000Y-48260000D03*
X76200000Y-45720000D03*
X78740000Y-48260000D03*
X78740000Y-45720000D03*
X81280000Y-48260000D03*
X81280000Y-45720000D03*
X83820000Y-48260000D03*
X83820000Y-45720000D03*
X86360000Y-48260000D03*
X86360000Y-45720000D03*
X88900000Y-48260000D03*
X88900000Y-45720000D03*
%TD*%
D12*
%TO.C,TP2*%
X43870000Y-20490000D03*
%TD*%
%TO.C,TP1*%
X51670000Y-20540000D03*
%TD*%
D11*
%TO.C,RV1*%
X63670000Y-21510000D03*
X61130000Y-21510000D03*
D10*
X58590000Y-21510000D03*
%TD*%
D13*
%TO.C,C8*%
X13980000Y-49067349D03*
D14*
X13980000Y-52567349D03*
%TD*%
D15*
%TO.C,C2*%
X30902500Y-14420000D03*
X32977500Y-14420000D03*
%TD*%
%TO.C,C1*%
X30902500Y-12220000D03*
X32977500Y-12220000D03*
%TD*%
D11*
%TO.C,SW2*%
X41510000Y-32610000D03*
X41510000Y-30070000D03*
D10*
X41510000Y-27530000D03*
%TD*%
D16*
%TO.C,R7*%
X30215000Y-19250000D03*
X32040000Y-19250000D03*
%TD*%
D17*
%TO.C,JP5*%
X27350000Y-8410000D03*
D18*
X27350000Y-6960000D03*
%TD*%
%TO.C,JP4*%
X14150000Y-7020000D03*
D17*
X14150000Y-8470000D03*
%TD*%
D18*
%TO.C,JP3*%
X16750000Y-7020000D03*
D17*
X16750000Y-8470000D03*
%TD*%
D18*
%TO.C,JP2*%
X19400000Y-7030000D03*
D17*
X19400000Y-8480000D03*
%TD*%
D18*
%TO.C,JP0*%
X24710000Y-7000000D03*
D17*
X24710000Y-8450000D03*
%TD*%
D19*
%TO.C,J5*%
X2800000Y-48260000D03*
D20*
X2800000Y-53260000D03*
%TD*%
D21*
%TO.C,J4*%
X86600000Y-3530000D03*
X81600000Y-3530000D03*
X76600000Y-3530000D03*
D22*
X71600000Y-3530000D03*
%TD*%
D10*
%TO.C,J3*%
X5590000Y-8300000D03*
D11*
X5590000Y-10840000D03*
X5590000Y-13380000D03*
X5590000Y-15920000D03*
X5590000Y-18460000D03*
X5590000Y-21000000D03*
X5590000Y-23540000D03*
X5590000Y-26080000D03*
X5590000Y-28620000D03*
X5590000Y-31160000D03*
X5590000Y-33700000D03*
X5590000Y-36240000D03*
X5590000Y-38780000D03*
X5590000Y-41320000D03*
%TD*%
D21*
%TO.C,J2*%
X64020000Y-3470000D03*
X59020000Y-3470000D03*
X54020000Y-3470000D03*
D22*
X49020000Y-3470000D03*
%TD*%
D23*
%TO.C,R6*%
X22490000Y-12815000D03*
X22490000Y-10990000D03*
%TD*%
%TO.C,R5*%
X25390000Y-12865000D03*
X25390000Y-11040000D03*
%TD*%
%TO.C,R4*%
X16920000Y-12785000D03*
X16920000Y-10960000D03*
%TD*%
%TO.C,R3*%
X19680000Y-12785000D03*
X19680000Y-10960000D03*
%TD*%
%TO.C,R2*%
X28320000Y-12805000D03*
X28320000Y-10980000D03*
%TD*%
%TO.C,R1*%
X14100000Y-12785000D03*
X14100000Y-10960000D03*
%TD*%
D18*
%TO.C,JP1*%
X22060000Y-6990000D03*
D17*
X22060000Y-8440000D03*
%TD*%
D24*
%TO.C,REF\u002A\u002A*%
X40000000Y-40000000D03*
%TD*%
%TO.C,REF\u002A\u002A*%
X0Y-40000000D03*
%TD*%
%TO.C,REF\u002A\u002A*%
X40000000Y0D03*
%TD*%
%TO.C,REF\u002A\u002A*%
X0Y0D03*
%TD*%
D25*
%TO.C,U1*%
X22440000Y-15175000D03*
X22440000Y-15825000D03*
X22440000Y-16475000D03*
X22440000Y-17125000D03*
X22440000Y-17775000D03*
X22440000Y-18425000D03*
X22440000Y-19075000D03*
X22440000Y-19725000D03*
X22440000Y-20375000D03*
X22440000Y-21025000D03*
X22440000Y-21675000D03*
X22440000Y-22325000D03*
X22440000Y-22975000D03*
X22440000Y-23625000D03*
X28165000Y-23625000D03*
X28165000Y-22975000D03*
X28165000Y-22325000D03*
X28165000Y-21675000D03*
X28165000Y-21025000D03*
X28165000Y-20375000D03*
X28165000Y-19725000D03*
X28165000Y-19075000D03*
X28165000Y-18425000D03*
X28165000Y-17775000D03*
X28165000Y-17125000D03*
X28165000Y-16475000D03*
X28165000Y-15825000D03*
X28165000Y-15175000D03*
%TD*%
D10*
%TO.C,J1*%
X34920000Y-38730000D03*
D11*
X34920000Y-41270000D03*
X32380000Y-38730000D03*
X32380000Y-41270000D03*
X29840000Y-38730000D03*
X29840000Y-41270000D03*
X27300000Y-38730000D03*
X27300000Y-41270000D03*
%TD*%
D26*
%TO.C,A1*%
X48390000Y-25520000D03*
X50930000Y-25520000D03*
X53470000Y-25520000D03*
X56010000Y-25520000D03*
X58550000Y-25520000D03*
X61090000Y-25520000D03*
X63630000Y-25520000D03*
X66170000Y-25520000D03*
X68710000Y-25520000D03*
X71250000Y-25520000D03*
X73790000Y-25520000D03*
X76330000Y-25520000D03*
X78870000Y-25520000D03*
X81410000Y-25520000D03*
X83950000Y-25520000D03*
X83950000Y-40760000D03*
X81410000Y-40760000D03*
X78870000Y-40760000D03*
X76330000Y-40760000D03*
X73790000Y-40760000D03*
X71250000Y-40760000D03*
X68710000Y-40760000D03*
X66170000Y-40760000D03*
X63630000Y-40760000D03*
X61090000Y-40760000D03*
X58550000Y-40760000D03*
X56010000Y-40760000D03*
X53470000Y-40760000D03*
X50930000Y-40760000D03*
D13*
X48390000Y-40760000D03*
%TD*%
M02*
